<?xml version="1.0" encoding="UTF-8" standalone="no"?>
<!DOCTYPE svg PUBLIC "-//W3C//DTD SVG 1.1//EN" "http://www.w3.org/Graphics/SVG/1.1/DTD/svg11.dtd">
<svg width="100%" height="100%" viewBox="0 0 172 125" version="1.1" xmlns="http://www.w3.org/2000/svg" xmlns:xlink="http://www.w3.org/1999/xlink" xml:space="preserve" xmlns:serif="http://www.serif.com/" style="fill-rule:evenodd;clip-rule:evenodd;stroke-linejoin:round;stroke-miterlimit:2;">
    <g id="Warstwa_2">
        <g id="Layer_2">
            <path d="M171.79,62.56L171.79,45.68C171.802,42.616 169.323,40.07 166.26,40C163.228,40.076 160.782,42.607 160.81,45.64L160.81,59.43C160.23,59.43 160.01,59.2 159.61,59.2L155.61,59.2L155.61,47.74C155.605,40.696 149.844,34.885 142.8,34.82L127.05,34.82C126.598,28.101 121.023,22.775 114.29,22.63L104.46,22.63L104.46,18.57L109.7,18.57C115.12,18.57 119.55,15.02 119.55,10.45L119.55,8.45C119.55,3.89 115.12,0.04 109.7,0.04L72.46,0.04C67,0 62.68,3.85 62.68,8.41L62.68,10.41C62.68,14.98 67.04,18.53 72.46,18.53L78.35,18.53L78.35,22.59L69,22.59C62.264,22.751 56.701,28.096 56.27,34.82L40.59,34.82C33.562,34.891 27.827,40.711 27.86,47.74L27.86,70.8L20.31,70.8L20.31,46.24C20.305,42.564 17.316,39.525 13.64,39.46L13.56,39.46C9.916,39.557 6.977,42.595 7,46.24L7,59.43C2.996,59.934 -0.032,63.394 0,67.43L0,91.3C-0.032,95.336 2.996,98.796 7,99.3L7,113.651C7,117.211 9.93,120.141 13.49,120.141C13.527,120.141 13.563,120.141 13.6,120.14L13.68,120.14C13.723,120.141 13.767,120.141 13.81,120.141C17.38,120.141 20.323,117.219 20.35,113.65L20.35,88.21L27.9,88.21L27.9,112.21C27.9,112.214 27.9,112.217 27.9,112.221C27.9,119.138 33.592,124.831 40.51,124.831C40.55,124.831 40.59,124.83 40.63,124.83L94.46,124.83C99.92,124.83 113.08,107.42 121.65,107.42L142.73,107.42C142.773,107.42 142.817,107.421 142.86,107.421C149.794,107.421 155.508,101.734 155.54,94.8L155.54,76.61L159.54,76.61C159.938,76.66 160.339,76.68 160.74,76.67L160.74,90.42C160.74,90.424 160.74,90.428 160.74,90.431C160.74,93.355 163.146,95.761 166.07,95.761C166.11,95.761 166.15,95.761 166.19,95.76C166.233,95.761 166.277,95.762 166.32,95.762C169.261,95.762 171.688,93.36 171.72,90.42L171.72,73.54C171.711,71.279 170.309,69.244 168.2,68.43L168.2,67.67C170.337,66.879 171.77,64.838 171.79,62.56ZM130.54,94L114.11,94C111.62,94 104.89,99.86 101.66,102.67C95.83,107.74 91.66,111.41 86.92,111.41L52.2,111.41C52.118,111.413 52.035,111.415 51.953,111.415C48.607,111.415 45.853,108.661 45.853,105.315C45.853,101.969 48.607,99.215 51.953,99.215C52.035,99.215 52.118,99.217 52.2,99.22L86.39,99.22C87.88,98.64 91.33,95.5 93.66,93.48C100.25,87.74 107.06,81.81 114.11,81.81L130.54,81.81C130.622,81.807 130.705,81.805 130.787,81.805C134.133,81.805 136.887,84.559 136.887,87.905C136.887,91.251 134.133,94.005 130.787,94.005C130.705,94.005 130.622,94.003 130.54,94Z" style="fill:rgb(140,140,140);fill-rule:nonzero;"/>
        </g>
    </g>
</svg>
