<?xml version="1.0" encoding="UTF-8" standalone="no"?>
<!DOCTYPE svg PUBLIC "-//W3C//DTD SVG 1.1//EN" "http://www.w3.org/Graphics/SVG/1.1/DTD/svg11.dtd">
<svg width="100%" height="100%" viewBox="0 0 22 22" version="1.1" xmlns="http://www.w3.org/2000/svg" xmlns:xlink="http://www.w3.org/1999/xlink" xml:space="preserve" xmlns:serif="http://www.serif.com/" style="fill-rule:evenodd;clip-rule:evenodd;stroke-linejoin:round;stroke-miterlimit:2;">
    <g transform="matrix(1,0,0,1,-1,-0.994282)">
        <path d="M21,11.08L21,11.999C20.997,16.935 16.935,20.994 12,20.994C7.063,20.994 3,16.932 3,11.994C3,7.057 7.063,2.994 12,2.994C13.262,2.994 14.51,3.26 15.663,3.773C16.167,3.998 16.759,3.771 16.983,3.267C17.208,2.763 16.981,2.171 16.477,1.947C15.068,1.319 13.543,0.994 12,0.994C5.966,0.994 1,5.96 1,11.994C1,18.029 5.966,22.994 12,22.994C18.032,22.994 22.997,18.033 23,12.001L23,11.08C23,10.528 22.552,10.08 22,10.08C21.448,10.08 21,10.528 21,11.08Z" style="fill:rgb(126,130,136);"/>
        <path d="M21.293,3.293L12,12.595C12,12.595 9.707,10.303 9.707,10.303C9.317,9.913 8.683,9.913 8.293,10.303C7.903,10.693 7.903,11.327 8.293,11.717L11.293,14.717C11.48,14.905 11.735,15.01 12,15.01C12.266,15.01 12.52,14.904 12.707,14.717L22.707,4.707C23.098,4.316 23.097,3.683 22.707,3.293C22.316,2.902 21.683,2.903 21.293,3.293Z" style="fill:rgb(126,130,136);"/>
    </g>
</svg>
