<?xml version="1.0" encoding="UTF-8" standalone="no"?>
<!DOCTYPE svg PUBLIC "-//W3C//DTD SVG 1.1//EN" "http://www.w3.org/Graphics/SVG/1.1/DTD/svg11.dtd">
<svg width="100%" height="100%" viewBox="0 0 26 18" version="1.1" xmlns="http://www.w3.org/2000/svg" xmlns:xlink="http://www.w3.org/1999/xlink" xml:space="preserve" xmlns:serif="http://www.serif.com/" style="fill-rule:evenodd;clip-rule:evenodd;stroke-linejoin:round;stroke-miterlimit:2;">
    <g transform="matrix(1,0,0,1,-3,-7)">
        <g id="mail_email_e-mail_letter">
            <path d="M28,13C27.451,13 27,13.451 27,14L27,22C27,22.549 26.549,23 26,23L6,23C5.451,23 5,22.549 5,22L5,14C5,13.451 4.549,13 4,13C3.451,13 3,13.451 3,14L3,22C3.001,22.795 3.317,23.558 3.88,24.12C4.442,24.683 5.205,24.999 6,25L26,25C26.795,24.999 27.558,24.683 28.12,24.12C28.683,23.558 28.999,22.795 29,22L29,14C29,13.451 28.549,13 28,13Z" style="fill:rgb(254,197,0);fill-rule:nonzero;"/>
            <path d="M15.4,18.8C15.755,19.066 16.245,19.066 16.6,18.8L28.41,9.94C28.788,9.655 28.915,9.138 28.71,8.71C28.561,8.402 28.362,8.122 28.12,7.88C27.558,7.317 26.795,7.001 26,7L6,7C5.205,7.001 4.442,7.317 3.88,7.88C3.638,8.122 3.439,8.402 3.29,8.71C3.085,9.138 3.212,9.655 3.59,9.94L15.4,18.8ZM6,9L26,9C26.093,8.985 26.187,8.985 26.28,9L16,16.75L5.72,9C5.813,8.985 5.907,8.985 6,9Z" style="fill:rgb(254,197,0);fill-rule:nonzero;"/>
        </g>
    </g>
</svg>
