<?xml version="1.0" encoding="UTF-8" standalone="no"?>
<!DOCTYPE svg PUBLIC "-//W3C//DTD SVG 1.1//EN" "http://www.w3.org/Graphics/SVG/1.1/DTD/svg11.dtd">
<svg width="100%" height="100%" viewBox="0 0 164 141" version="1.1" xmlns="http://www.w3.org/2000/svg" xmlns:xlink="http://www.w3.org/1999/xlink" xml:space="preserve" xmlns:serif="http://www.serif.com/" style="fill-rule:evenodd;clip-rule:evenodd;stroke-linejoin:round;stroke-miterlimit:2;">
    <g id="Warstwa_2">
        <g id="Layer_2">
            <path d="M34.78,5.54C34.78,2.6 32.78,0 29.78,0L23.78,0C20.798,0.091 18.39,2.557 18.37,5.54L18.37,13.64L34.78,13.64L34.78,5.54ZM4.78,130.54C4.78,136.54 9.34,140.54 15.32,140.54L149.63,140.54C155.63,140.54 160.27,136.54 160.27,130.54L160.27,34.78L4.77,34.78L4.78,130.54ZM118.68,57.3L145.28,57.3L145.28,65.48L118.68,65.48L118.68,57.3ZM95.83,50.7L83.07,79.76L107.07,79.66L64.87,122.72L82,92.07L58.19,92.07L95.83,50.7ZM19.83,57.29L28.69,57.29L28.69,48.42L36.88,48.42L36.88,57.29L46.43,57.29L46.43,65.47L36.83,65.47L36.83,75.7L28.64,75.7L28.64,65.47L19.78,65.47L19.83,57.29ZM153,16.37L11.91,16.37C5.462,16.571 0.212,21.812 0,28.26L0,30L163.68,30L163.68,28.26C163.68,22 159.3,16.37 153,16.37ZM146,5.54C146,2.6 144.07,0 141.12,0L135.12,0C132.12,0 128.91,2.6 128.91,5.54L128.91,13.64L145.91,13.64L146,5.54Z" style="fill:rgb(140,140,140);fill-rule:nonzero;"/>
        </g>
    </g>
</svg>
