<?xml version="1.0" encoding="UTF-8" standalone="no"?>
<!DOCTYPE svg PUBLIC "-//W3C//DTD SVG 1.1//EN" "http://www.w3.org/Graphics/SVG/1.1/DTD/svg11.dtd">
<svg width="100%" height="100%" viewBox="0 0 486 345" version="1.1" xmlns="http://www.w3.org/2000/svg" xmlns:xlink="http://www.w3.org/1999/xlink" xml:space="preserve" xmlns:serif="http://www.serif.com/" style="fill-rule:evenodd;clip-rule:evenodd;stroke-linejoin:round;stroke-miterlimit:2;">
    <g transform="matrix(1,0,0,1,-13.49,-83.84)">
        <g id="Layer_2">
            <g>
                <g>
                    <g>
                        <path d="M455.94,263.15L262.62,263.15C258.75,263.15 255.62,260.02 255.62,256.15L255.62,148.56C255.62,146.65 256.4,144.83 257.78,143.51L318.03,85.79C319.33,84.54 321.07,83.84 322.87,83.84L455.94,83.84C459.81,83.84 462.94,86.97 462.94,90.84L462.94,125.21C462.94,129.08 459.81,132.21 455.94,132.21C452.07,132.21 448.94,129.08 448.94,125.21L448.94,97.83L325.68,97.83L269.62,151.54L269.62,249.14L448.94,249.14L448.94,167.45C448.94,163.58 452.07,160.45 455.94,160.45C459.81,160.45 462.94,163.58 462.94,167.45L462.94,256.14C462.94,260.02 459.81,263.15 455.94,263.15Z" style="fill:rgb(254,197,0);fill-rule:nonzero;"/>
                    </g>
                    <g>
                        <path d="M455.94,153.33C455.49,153.33 455.03,153.29 454.57,153.2C454.13,153.11 453.69,152.97 453.26,152.8C452.84,152.62 452.44,152.41 452.06,152.15C451.67,151.9 451.31,151.61 450.99,151.28C450.67,150.96 450.38,150.6 450.12,150.22C449.87,149.84 449.65,149.43 449.48,149.01C449.3,148.59 449.17,148.15 449.08,147.7C448.99,147.25 448.94,146.79 448.94,146.33C448.94,145.88 448.99,145.42 449.08,144.97C449.17,144.52 449.3,144.08 449.48,143.66C449.65,143.23 449.87,142.83 450.12,142.45C450.38,142.07 450.67,141.71 450.99,141.38C451.31,141.06 451.67,140.77 452.06,140.51C452.44,140.26 452.84,140.05 453.26,139.87C453.69,139.7 454.13,139.56 454.57,139.47C455.48,139.29 456.41,139.29 457.31,139.47C457.76,139.56 458.2,139.7 458.62,139.87C459.04,140.05 459.45,140.26 459.83,140.51C460.21,140.77 460.57,141.06 460.89,141.38C461.21,141.71 461.51,142.07 461.76,142.45C462.01,142.83 462.23,143.23 462.4,143.66C462.58,144.08 462.72,144.52 462.81,144.97C462.9,145.42 462.94,145.88 462.94,146.33C462.94,146.79 462.9,147.25 462.81,147.7C462.72,148.15 462.58,148.59 462.4,149.01C462.23,149.43 462.01,149.84 461.76,150.22C461.51,150.6 461.21,150.96 460.89,151.28C460.57,151.61 460.21,151.9 459.83,152.15C459.45,152.41 459.04,152.62 458.62,152.8C458.2,152.97 457.76,153.11 457.31,153.2C456.86,153.29 456.4,153.33 455.94,153.33Z" style="fill:rgb(254,197,0);fill-rule:nonzero;"/>
                    </g>
                    <g>
                        <path d="M411.59,228.2L306.98,228.2C303.11,228.2 299.98,225.07 299.98,221.2L299.98,167.48C299.98,165.57 300.76,163.75 302.14,162.43L335.85,130.13C337.15,128.88 338.89,128.18 340.69,128.18L411.59,128.18C415.46,128.18 418.59,131.31 418.59,135.18L418.59,221.2C418.59,225.07 415.46,228.2 411.59,228.2ZM313.97,214.2L404.59,214.2L404.59,142.18L343.5,142.18L313.97,170.47L313.97,214.2Z" style="fill:rgb(254,197,0);fill-rule:nonzero;"/>
                    </g>
                    <g>
                        <path d="M258.5,428.17C256.66,428.17 254.85,427.42 253.55,426.12C253.23,425.79 252.94,425.44 252.68,425.05C252.43,424.67 252.21,424.27 252.04,423.84C251.86,423.42 251.73,422.98 251.64,422.53C251.55,422.08 251.5,421.62 251.5,421.17C251.5,420.71 251.55,420.25 251.64,419.8C251.73,419.35 251.86,418.91 252.04,418.49C252.21,418.07 252.43,417.66 252.68,417.28C252.94,416.9 253.23,416.54 253.55,416.22C255.18,414.59 257.59,413.85 259.87,414.3C260.31,414.39 260.75,414.53 261.18,414.7C261.6,414.88 262.01,415.09 262.39,415.35C262.77,415.6 263.13,415.89 263.45,416.22C263.77,416.54 264.07,416.9 264.32,417.28C264.57,417.66 264.79,418.07 264.96,418.49C265.14,418.91 265.27,419.35 265.36,419.8C265.45,420.25 265.5,420.71 265.5,421.17C265.5,423.01 264.75,424.81 263.45,426.12C263.13,426.44 262.77,426.73 262.39,426.99C262.01,427.24 261.6,427.45 261.18,427.63C260.75,427.8 260.31,427.94 259.87,428.03C259.42,428.12 258.96,428.17 258.5,428.17Z" style="fill:rgb(254,197,0);fill-rule:nonzero;"/>
                    </g>
                    <g>
                        <path d="M454.22,428.17L281.94,428.17C278.07,428.17 274.94,425.04 274.94,421.17C274.94,417.3 278.07,414.17 281.94,414.17L454.23,414.17C470.92,414.17 484.51,400.59 484.51,383.89L484.51,379.71C484.51,363.02 470.93,349.43 454.23,349.43L181.03,349.43C164.34,349.43 150.75,363.01 150.75,379.71L150.75,383.89C150.75,400.58 164.33,414.17 181.03,414.17L238.15,414.17C242.02,414.17 245.15,417.3 245.15,421.17C245.15,425.04 242.02,428.17 238.15,428.17L181.03,428.17C156.62,428.17 136.75,408.31 136.75,383.89L136.75,379.71C136.75,355.3 156.61,335.43 181.03,335.43L454.22,335.43C478.63,335.43 498.5,355.29 498.5,379.71L498.5,383.89C498.5,408.3 478.64,428.17 454.22,428.17Z" style="fill:rgb(254,197,0);fill-rule:nonzero;"/>
                    </g>
                    <g>
                        <path d="M455.94,314.8L164.83,314.8C160.96,314.8 157.83,311.67 157.83,307.8L157.83,283.88C157.83,282 158.58,280.2 159.92,278.89L188.15,251.16C189.46,249.87 191.22,249.15 193.06,249.15L455.94,249.15C459.81,249.15 462.94,252.28 462.94,256.15L462.94,307.8C462.94,311.67 459.81,314.8 455.94,314.8ZM171.83,300.8L448.94,300.8L448.94,263.15L195.92,263.15L171.83,286.82L171.83,300.8Z" style="fill:rgb(254,197,0);fill-rule:nonzero;"/>
                    </g>
                    <g>
                        <path d="M164.83,290.88C163.02,290.88 161.21,290.18 159.84,288.79C157.13,286.03 157.17,281.6 159.93,278.89L183.06,256.17L80.46,155.94C78.49,159.32 75.98,162.38 73.03,164.97L143.87,248.39C146.37,251.34 146.01,255.75 143.07,258.26C140.12,260.76 135.7,260.4 133.2,257.46L57.36,168.16C55.98,166.53 55.42,164.37 55.83,162.27C56.24,160.18 57.59,158.39 59.48,157.41C65.37,154.36 69.64,148.68 70.89,142.2C71.38,139.67 73.22,137.62 75.68,136.85C78.14,136.08 80.82,136.73 82.66,138.52L197.95,251.15C199.3,252.46 200.06,254.27 200.06,256.15C200.06,258.03 199.31,259.83 197.97,261.15L169.74,288.88C168.37,290.21 166.6,290.88 164.83,290.88Z" style="fill:rgb(254,197,0);fill-rule:nonzero;"/>
                    </g>
                    <g>
                        <path d="M62.91,292.27L40.84,292.27C37.07,292.27 33.97,289.28 33.84,285.51L29.63,164.12C29.55,161.66 30.76,159.33 32.83,157.99C34.9,156.65 37.52,156.51 39.73,157.6C42.74,159.09 45.99,159.85 49.4,159.85C52.81,159.85 56.07,159.09 59.08,157.6C61.24,156.53 63.81,156.64 65.86,157.91C67.92,159.18 69.17,161.41 69.19,163.83L69.91,285.22C69.92,287.08 69.19,288.87 67.87,290.2C66.56,291.53 64.77,292.27 62.91,292.27ZM47.6,278.27L55.87,278.27L55.25,173.39C51.56,173.99 47.67,174.01 43.96,173.45L47.6,278.27Z" style="fill:rgb(254,197,0);fill-rule:nonzero;"/>
                    </g>
                    <g>
                        <path d="M100.66,360.94L46.9,360.94C44.77,360.94 42.76,359.97 41.43,358.31L32.23,346.8C31.24,345.56 30.7,344.02 30.7,342.43L30.7,285.28C30.7,281.41 33.83,278.28 37.7,278.28L71.54,278.28C75.41,278.28 78.54,281.41 78.54,285.28L78.54,322.32L89.14,322.32L108.83,302.62C110.83,300.62 113.84,300.02 116.46,301.1C119.08,302.18 120.78,304.74 120.78,307.57L120.78,341.18C120.78,343.07 120.02,344.88 118.66,346.2L105.54,358.97C104.24,360.23 102.49,360.94 100.66,360.94ZM50.27,346.94L97.82,346.94L106.78,338.22L106.78,324.47L96.99,334.27C95.68,335.58 93.9,336.32 92.04,336.32L71.54,336.32C67.67,336.32 64.54,333.19 64.54,329.32L64.54,292.28L44.7,292.28L44.7,339.98L50.27,346.94Z" style="fill:rgb(254,197,0);fill-rule:nonzero;"/>
                    </g>
                    <g>
                        <g>
                            <path d="M187.89,404.08C175.6,404.08 165.61,394.09 165.61,381.8C165.61,369.51 175.6,359.52 187.89,359.52C200.17,359.52 210.17,369.51 210.17,381.8C210.17,394.09 200.17,404.08 187.89,404.08ZM187.89,373.52C183.32,373.52 179.61,377.23 179.61,381.8C179.61,386.37 183.32,390.08 187.89,390.08C192.45,390.08 196.17,386.37 196.17,381.8C196.17,377.23 192.46,373.52 187.89,373.52Z" style="fill:rgb(254,197,0);fill-rule:nonzero;"/>
                        </g>
                        <g>
                            <path d="M252.76,404.08C240.47,404.08 230.48,394.09 230.48,381.8C230.48,369.51 240.47,359.52 252.76,359.52C265.05,359.52 275.04,369.51 275.04,381.8C275.04,394.09 265.04,404.08 252.76,404.08ZM252.76,373.52C248.19,373.52 244.48,377.23 244.48,381.8C244.48,386.37 248.19,390.08 252.76,390.08C257.33,390.08 261.04,386.37 261.04,381.8C261.04,377.23 257.32,373.52 252.76,373.52Z" style="fill:rgb(254,197,0);fill-rule:nonzero;"/>
                        </g>
                        <g>
                            <path d="M317.63,404.08C305.34,404.08 295.35,394.09 295.35,381.8C295.35,369.51 305.34,359.52 317.63,359.52C329.91,359.52 339.91,369.51 339.91,381.8C339.91,394.09 329.91,404.08 317.63,404.08ZM317.63,373.52C313.06,373.52 309.35,377.23 309.35,381.8C309.35,386.37 313.06,390.08 317.63,390.08C322.19,390.08 325.91,386.37 325.91,381.8C325.91,377.23 322.19,373.52 317.63,373.52Z" style="fill:rgb(254,197,0);fill-rule:nonzero;"/>
                        </g>
                        <g>
                            <path d="M382.5,404.08C370.21,404.08 360.22,394.09 360.22,381.8C360.22,369.51 370.21,359.52 382.5,359.52C394.79,359.52 404.78,369.51 404.78,381.8C404.78,394.09 394.78,404.08 382.5,404.08ZM382.5,373.52C377.93,373.52 374.22,377.23 374.22,381.8C374.22,386.37 377.93,390.08 382.5,390.08C387.07,390.08 390.78,386.37 390.78,381.8C390.78,377.23 387.06,373.52 382.5,373.52Z" style="fill:rgb(254,197,0);fill-rule:nonzero;"/>
                        </g>
                        <g>
                            <path d="M447.37,404.08C435.08,404.08 425.09,394.09 425.09,381.8C425.09,369.51 435.08,359.52 447.37,359.52C459.65,359.52 469.65,369.51 469.65,381.8C469.65,394.09 459.65,404.08 447.37,404.08ZM447.37,373.52C442.8,373.52 439.09,377.23 439.09,381.8C439.09,386.37 442.8,390.08 447.37,390.08C451.93,390.08 455.65,386.37 455.65,381.8C455.64,377.23 451.93,373.52 447.37,373.52Z" style="fill:rgb(254,197,0);fill-rule:nonzero;"/>
                        </g>
                    </g>
                    <g>
                        <path d="M49.4,116.04C37.32,116.04 27.5,125.87 27.5,137.95C27.5,146.35 32.18,153.88 39.72,157.6C42.74,159.1 46,159.86 49.4,159.86C52.81,159.86 56.07,159.1 59.08,157.61C59.12,157.59 59.17,157.57 59.21,157.55C59.3,157.5 59.39,157.45 59.48,157.4C65.37,154.35 69.64,148.67 70.89,142.19C71.18,140.8 71.31,139.4 71.31,137.96C71.32,125.87 61.49,116.04 49.4,116.04ZM49.4,173.86C43.82,173.86 38.47,172.61 33.51,170.15C21.17,164.07 13.49,151.73 13.49,137.95C13.49,118.15 29.6,102.04 49.39,102.04C69.19,102.04 85.31,118.15 85.31,137.95C85.31,140.33 85.08,142.68 84.62,144.92C82.58,155.42 75.66,164.71 66.1,169.73C65.8,169.9 65.49,170.06 65.17,170.21C60.25,172.63 54.95,173.86 49.4,173.86Z" style="fill:rgb(254,197,0);fill-rule:nonzero;"/>
                    </g>
                </g>
            </g>
        </g>
    </g>
</svg>
