<?xml version="1.0" encoding="UTF-8" standalone="no"?>
<!DOCTYPE svg PUBLIC "-//W3C//DTD SVG 1.1//EN" "http://www.w3.org/Graphics/SVG/1.1/DTD/svg11.dtd">
<svg width="100%" height="100%" viewBox="0 0 23 27" version="1.1" xmlns="http://www.w3.org/2000/svg" xmlns:xlink="http://www.w3.org/1999/xlink" xml:space="preserve" xmlns:serif="http://www.serif.com/" style="fill-rule:evenodd;clip-rule:evenodd;stroke-linejoin:round;stroke-miterlimit:2;">
    <g transform="matrix(1,0,0,1,-4.99742,-2.92742)">
        <g id="locate_location_map_pin">
            <path d="M23.78,6.15C21.717,4.087 18.917,2.927 16,2.927C9.964,2.927 4.997,7.894 4.997,13.93C4.997,16.847 6.157,19.647 8.22,21.71L12.32,25.81C12.508,25.998 12.764,26.104 13.03,26.104C13.581,26.104 14.034,25.651 14.034,25.1C14.034,24.834 13.928,24.578 13.74,24.39L9.64,20.29C7.95,18.603 7,16.31 7,13.922C7,8.985 11.063,4.922 16,4.922C20.937,4.922 25,8.985 25,13.922C25,16.31 24.05,18.603 22.36,20.29L15.29,27.36C15.101,27.548 14.994,27.803 14.994,28.07C14.994,28.337 15.101,28.592 15.29,28.78C15.478,28.969 15.733,29.076 16,29.076C16.267,29.076 16.522,28.969 16.71,28.78L23.78,21.71C25.843,19.648 27.004,16.847 27.004,13.93C27.004,11.013 25.843,8.212 23.78,6.15Z" style="fill:rgb(254,197,0);fill-rule:nonzero;"/>
            <path d="M21,14C21,11.257 18.743,9 16,9C13.257,9 11,11.257 11,14C11,16.743 13.257,19 16,19C18.743,19 21,16.743 21,14ZM13,14C13,12.354 14.354,11 16,11C17.646,11 19,12.354 19,14C19,15.646 17.646,17 16,17C14.354,17 13,15.646 13,14Z" style="fill:rgb(254,197,0);fill-rule:nonzero;"/>
        </g>
    </g>
</svg>
