<?xml version="1.0" encoding="UTF-8" standalone="no"?>
<!DOCTYPE svg PUBLIC "-//W3C//DTD SVG 1.1//EN" "http://www.w3.org/Graphics/SVG/1.1/DTD/svg11.dtd">
<svg width="100%" height="100%" viewBox="0 0 1040 183" version="1.1" xmlns="http://www.w3.org/2000/svg" xmlns:xlink="http://www.w3.org/1999/xlink" xml:space="preserve" xmlns:serif="http://www.serif.com/" style="fill-rule:evenodd;clip-rule:evenodd;stroke-miterlimit:10;">
    <g transform="matrix(1,0,0,1,-79.9,-208.8)">
        <g id="Warstwa_1">
            <g>
                <path d="M585.6,312.7C594.1,305 603.4,298.1 613,291.7C617.8,288.5 622.7,285.5 627.7,282.6C632.7,279.7 637.7,276.9 642.9,274.3C645.5,273 648.1,271.7 650.7,270.4C653.3,269.2 656,268 658.6,266.9C664,264.7 669.3,262.6 674.8,260.6C685.6,256.6 696.7,253.2 707.9,250.4C719.1,247.5 730.4,245.1 741.7,243.2C753.1,241.2 764.5,239.7 776,238.7C787.5,237.7 799.1,237.3 810.7,237.9C816.5,238.3 822.3,238.9 828.2,240.2C831.1,240.9 834,241.7 836.9,243.1C838.3,243.8 839.8,244.6 841.1,245.9C841.4,246.2 841.8,246.6 842.1,247C842.3,247.2 842.4,247.4 842.5,247.7L842.7,248.1C842.7,248.2 842.7,248.1 842.7,248.1C842.6,248 842.8,248.2 843,248.3L843.8,249C852.5,256.6 860.8,264.7 868.8,273C872.8,277.2 876.7,281.4 880.5,285.8C882.4,288 884.3,290.2 886.1,292.4L888.8,295.8L889.5,296.6L889.8,297L889.9,297.1L889.9,297C889.9,296.9 889.8,296.9 889.8,296.9C889.6,296.8 889.5,296.8 889.5,296.8L890.5,296.8C901.9,297.3 913.4,297.8 924.9,298.2C930.6,298.4 936.3,298.6 942,298.6L950.5,298.6L959.1,298.5C970.6,298.4 982.1,298.2 993.7,299L998,299.3C999.4,299.4 1000.9,299.6 1002.3,299.8C1005.2,300.1 1008.1,300.6 1010.9,301C1012.3,301.2 1013.8,301.5 1015.2,301.8C1016.6,302.1 1018.1,302.3 1019.5,302.6C1022.3,303.3 1025.2,303.8 1028,304.6L1032.2,305.7C1033.6,306.1 1035,306.6 1036.4,307C1037.8,307.4 1039.2,307.9 1040.6,308.3L1044.7,309.8C1047.5,310.7 1050.1,311.8 1052.8,312.9C1055.5,313.9 1058.2,315.1 1060.9,316.4C1063.6,317.7 1066.2,319.2 1068.7,320.8C1071.2,322.5 1073.6,324.3 1075.8,326.7C1076.8,327.9 1077.9,329.1 1078.7,330.9C1079.1,331.8 1079.4,332.9 1079.4,334C1079.4,335 1079.2,335.9 1079,336.8C1078.5,338.5 1077.7,340.1 1076.6,341.4C1076.1,342.1 1075.5,342.7 1074.6,343.4C1074.6,343.4 1074.8,343.2 1074.8,343L1074.8,342.9L1074.8,343.2L1074.7,343.7L1073.9,341.7C1075.3,342.9 1076.5,344.2 1077.6,345.9C1078.1,346.7 1078.6,347.6 1078.9,348.9C1079,349.2 1079,349.5 1079,349.9C1079,350.2 1079,350.5 1078.9,350.8C1078.8,351.3 1078.7,351.8 1078.6,352.3C1078,354.2 1077.1,355.8 1076,357.2C1075,358.6 1073.9,360 1072.7,361.2C1070.4,363.7 1067.8,366 1065.1,368C1064.4,368.5 1063.7,369 1063,369.5C1062.6,369.7 1062.3,369.9 1061.9,370.2C1061.4,370.5 1060.8,370.7 1060.3,370.7C1059.2,370.8 1058,370.4 1057.2,369.7C1057,369.5 1056.8,369.3 1056.6,369.1L1055.4,367.6L1056.6,367.9C1054.4,369 1052,369.7 1049.6,370.1C1047.2,370.5 1044.9,370.8 1042.5,371C1037.8,371.4 1033.1,371.8 1028.4,372.3C1033.1,371.4 1037.7,370.7 1042.4,370C1044.7,369.6 1047.1,369.2 1049.3,368.6C1051.6,368 1053.7,367.2 1055.7,366.1L1056.4,365.7L1056.9,366.3L1057.7,367.2L1058.1,367.7C1058.2,367.8 1058.3,367.9 1058.4,368C1058.8,368.3 1059.4,368.5 1059.9,368.4C1060.2,368.4 1060.4,368.3 1060.6,368.1C1060.9,367.9 1061.2,367.7 1061.6,367.4C1062.2,366.9 1062.9,366.4 1063.5,365.9C1066,363.8 1068.3,361.5 1070.3,359C1071.3,357.8 1072.3,356.5 1073.1,355.2C1073.9,353.9 1074.6,352.5 1074.9,351.2C1075.1,350.6 1075.1,349.9 1075,349.7C1074.9,349.3 1074.6,348.8 1074.2,348.2C1073.4,347.1 1072.2,346 1071.1,345.1L1070.2,344.4L1070.3,343.1L1070.4,342.6L1070.4,342.1C1070.4,342 1070.4,341.9 1070.5,341.8C1070.7,341 1071.3,340.2 1071.9,339.7C1072.2,339.4 1072.6,339 1072.9,338.6C1073.5,337.7 1074,336.6 1074.3,335.5C1074.4,335 1074.5,334.4 1074.5,334C1074.5,333.6 1074.4,333.3 1074.2,332.9C1073.8,332.1 1073,331 1072.2,330.1C1070.5,328.2 1068.3,326.5 1066.1,325C1063.8,323.5 1061.4,322.1 1058.9,320.9C1056.4,319.7 1053.8,318.6 1051.2,317.6C1048.6,316.5 1045.9,315.5 1043.2,314.6L1039.2,313.2C1037.9,312.7 1036.5,312.3 1035.1,311.9C1033.7,311.5 1032.4,311 1031,310.7L1026.9,309.6C1024.2,308.8 1021.4,308.3 1018.6,307.6C1017.2,307.3 1015.8,307.1 1014.4,306.8C1013,306.6 1011.6,306.3 1010.2,306.1C1007.4,305.7 1004.6,305.2 1001.8,305C1000.4,304.9 999,304.7 997.6,304.6L993.4,304.3C982.1,303.5 970.7,303.6 959.2,303.8L950.6,303.9C947.7,303.9 944.8,304 941.9,303.9C936.1,303.8 930.4,303.7 924.6,303.5C913.1,303.1 901.7,302.6 890.2,302.1L889.1,302C888.4,301.9 887.6,301.7 886.8,301.2C886.6,301.1 886.4,300.9 886.3,300.7C886.2,300.6 886.1,300.5 886.1,300.4L886,300.3L885.7,299.9L885,299.1L882.3,295.8C880.5,293.6 878.6,291.4 876.8,289.3C873.1,285 869.2,280.8 865.3,276.7C857.4,268.4 849.2,260.5 840.7,253L839.9,252.3C839.8,252.2 839.7,252.1 839.4,251.8C839.1,251.5 838.9,251.2 838.7,251L838.4,250.5L838.2,250.3C838.1,250.1 837.9,250 837.8,249.8C837.1,249.1 836,248.5 834.9,247.9C832.6,246.8 829.9,246 827.3,245.4C821.9,244.2 816.3,243.6 810.7,243.3C799.4,242.7 788,243.1 776.7,244C765.4,245 754,246.5 742.8,248.5C731.6,250.5 720.4,252.8 709.3,255.7C698.3,258.6 687.4,261.9 676.7,265.8C666,269.6 655.6,274.3 645.1,278.8C634.7,283.4 624.5,288.6 614.5,294.2C609.5,297 604.7,300 599.9,303.2C594.8,305.8 590.1,309.1 585.6,312.7Z" style="fill:rgb(236,122,36);fill-rule:nonzero;"/>
            </g>
            <g>
                <path d="M585.6,312.7C594.2,304.3 603.5,296.6 613.2,289.4C622.9,282.2 633.1,275.7 643.6,269.6C654,263.4 665.1,258.5 676.3,253.9C687.5,249.3 699,245.3 710.6,242C722.3,238.7 734.1,236.2 745.9,233.7C757.7,231.3 769.6,229.1 781.6,227.4C793.6,225.7 805.6,224.3 817.7,223.7C823.8,223.5 829.9,223.4 836.1,224C839.2,224.3 842.3,224.7 845.4,225.6C847,226.1 848.6,226.6 850.2,227.5C851,228 851.8,228.5 852.5,229.3C852.9,229.7 853.2,230.1 853.5,230.6C853.7,231 853.8,231.1 853.8,231.1L855.4,232.5L860.5,237C862.7,239 865,241.1 867.1,243.2C871.5,247.4 875.8,251.6 880,256C884.2,260.4 888.3,264.8 892.3,269.3C894.3,271.6 896.3,273.9 898.2,276.2C899.2,277.3 900.1,278.5 901.1,279.7L902.5,281.5L903,282C903,282.1 903.1,282.1 903,282C903,281.9 902.9,281.9 902.9,281.9C902.7,281.8 902.6,281.8 902.6,281.8L920.5,282.6L938.5,283.3C944.5,283.5 950.5,283.7 956.5,283.8C962.4,283.9 968.5,283.7 974.5,283.7C986.5,283.5 998.6,283.4 1010.8,284.2C1022.9,285 1035,286.8 1046.8,289.9C1052.7,291.4 1058.5,293.2 1064.2,295.3C1067.1,296.3 1069.9,297.4 1072.7,298.5C1075.5,299.6 1078.4,300.8 1081.1,302.1C1083.9,303.4 1086.6,305 1089.2,306.7C1091.8,308.4 1094.4,310.3 1096.7,312.8C1097.8,314 1098.9,315.3 1099.8,317.1C1100.2,318 1100.5,319.1 1100.6,320.3C1100.6,321.4 1100.5,322.3 1100.2,323.2C1099.7,325 1098.8,326.6 1097.7,328C1097.1,328.7 1096.5,329.4 1095.7,330C1095.6,330.1 1095.7,330 1095.7,330L1095.8,329.9C1095.8,329.8 1095.9,329.8 1095.9,329.7L1095.9,329.6L1095.9,329.9L1095.8,330.5L1095,328.5C1096.5,329.8 1097.7,331.1 1098.9,332.8C1099.4,333.7 1100,334.6 1100.3,335.9C1100.4,336.2 1100.4,336.6 1100.4,336.9C1100.4,337.2 1100.4,337.5 1100.3,337.8C1100.2,338.4 1100.1,338.9 1100,339.4C1099.4,341.4 1098.4,343 1097.3,344.5C1096.2,346 1095.1,347.4 1093.9,348.7C1091.5,351.3 1088.8,353.7 1086,355.8C1085.3,356.3 1084.6,356.8 1083.8,357.3C1083.4,357.5 1083.1,357.8 1082.6,358C1082.1,358.3 1081.5,358.5 1080.9,358.5C1079.7,358.6 1078.5,358.2 1077.7,357.5C1077.5,357.3 1077.3,357.1 1077.1,356.9L1075.9,355.4L1077.1,355.7C1074.8,356.8 1072.3,357.6 1069.9,358C1067.4,358.5 1065,358.7 1062.5,358.9C1057.6,359.3 1052.7,359.7 1047.8,360.3C1052.7,359.4 1057.5,358.7 1062.4,357.9C1064.8,357.5 1067.3,357.1 1069.6,356.5C1072,355.9 1074.2,355.1 1076.3,353.9L1077,353.5L1077.5,354.1L1078.4,355.1L1078.8,355.6C1078.9,355.7 1079,355.8 1079.1,355.9C1079.6,356.2 1080.2,356.4 1080.7,356.3C1081,356.3 1081.2,356.2 1081.5,356C1081.8,355.8 1082.2,355.5 1082.5,355.3C1083.2,354.8 1083.8,354.3 1084.5,353.8C1087.1,351.6 1089.5,349.2 1091.6,346.7C1092.7,345.4 1093.7,344.1 1094.5,342.7C1095.3,341.3 1096.1,339.9 1096.4,338.5C1096.6,337.9 1096.6,337.1 1096.5,336.9C1096.4,336.5 1096.1,335.9 1095.6,335.3C1094.8,334.2 1093.5,333 1092.3,332.1L1091.4,331.4L1091.5,330.1L1091.6,329.5L1091.6,328.9C1091.6,328.8 1091.6,328.7 1091.7,328.6C1091.8,328.2 1092,327.8 1092.3,327.4C1092.4,327.2 1092.6,327 1092.7,326.9L1093.1,326.5C1093.4,326.2 1093.8,325.8 1094.2,325.3C1094.9,324.3 1095.4,323.2 1095.6,322.1C1095.7,321.6 1095.8,321 1095.8,320.6C1095.8,320.2 1095.7,319.9 1095.5,319.4C1095.1,318.5 1094.2,317.4 1093.3,316.4C1091.5,314.4 1089.2,312.7 1086.8,311.1C1084.4,309.5 1081.9,308.1 1079.2,306.8C1076.6,305.5 1073.9,304.4 1071.1,303.3C1068.3,302.2 1065.5,301.2 1062.7,300.2C1057.1,298.2 1051.4,296.5 1045.7,295C1034.2,292 1022.5,290.2 1010.6,289.4C998.7,288.6 986.8,288.8 974.7,288.9C968.7,289 962.7,289.1 956.6,289C950.6,288.9 944.5,288.7 938.5,288.5L920.5,287.8L902.4,287C901.7,286.9 900.8,286.7 900.1,286.1C899.9,286 899.7,285.8 899.6,285.6L898.9,284.9L897.5,283.2C896.5,282.1 895.6,280.9 894.6,279.7C892.7,277.4 890.7,275.1 888.7,272.9C884.8,268.4 880.7,264 876.6,259.7C872.5,255.4 868.2,251.2 863.9,247C861.7,244.9 859.6,242.9 857.3,240.9L854,237.9L850.5,234.8C849.9,234.2 849.6,233.6 849.5,233.4C849.4,233.3 849.3,233.1 849.1,232.9C848.8,232.6 848.4,232.3 847.9,232C846.9,231.4 845.6,230.9 844.3,230.6C841.6,229.9 838.8,229.4 835.9,229.2C830.1,228.7 824.1,228.7 818.2,229C806.3,229.5 794.4,230.9 782.6,232.6C770.8,234.3 759,236.5 747.2,238.9C735.5,241.3 723.7,243.9 712.3,247.1C700.8,250.3 689.5,254.3 678.5,258.8C673,261 667.5,263.5 662.1,266L654.1,269.9C651.4,271.2 648.7,272.5 646.1,273.8C640.8,276.5 635.5,279.3 630.3,282.3C625.1,285.3 620,288.4 615,291.6C610,294.8 605,298.2 600.2,301.8C594.9,305.1 590.2,308.8 585.6,312.7Z" style="fill:rgb(236,122,36);fill-rule:nonzero;"/>
            </g>
            <g>
                <path d="M585.6,312.7C593.9,303.4 603.5,295.2 613.5,287.6C623.5,280 634.1,273.2 644.9,266.8C650.3,263.6 655.8,260.6 661.4,257.7C667,254.9 672.8,252.3 678.5,249.8C690,244.7 701.7,240.1 713.5,235.8C719.4,233.7 725.3,231.7 731.3,229.7L740.3,226.8C743.3,225.9 746.3,225 749.3,224.1C761.4,220.7 773.7,217.9 786.1,215.7C798.5,213.5 811,211.9 823.6,211.2C829.9,210.8 836.2,210.7 842.5,210.9C848.8,211.1 855.2,211.6 861.6,212.9C863.2,213.2 864.8,213.7 866.4,214.2C868,214.8 869.6,215.4 871.2,216.5C872,217.1 872.8,217.7 873.5,218.7L873.8,219.1L873.9,219.3C874,219.4 874,219.5 874,219.5C873.8,219.4 874.3,219.8 874.6,220C875.8,221 877,222.1 878.2,223.1C882.9,227.3 887.5,231.5 892,235.9C901,244.7 909.6,253.8 917.8,263.4L922.3,268.8L922.9,269.6C922.7,269.4 922.5,269.4 922.5,269.4L931.5,269.8L950.2,270.6C956.4,270.8 962.7,271 968.9,271.2C972,271.3 975.1,271.3 978.2,271.4C981.3,271.4 984.4,271.4 987.5,271.3C993.7,271.2 1000,271.1 1006.3,271.1L1015.7,271.1C1018.8,271.2 1022,271.2 1025.1,271.4C1031.4,271.6 1037.7,272.2 1044,273L1048.7,273.7C1050.3,273.9 1051.8,274.3 1053.4,274.5C1056.5,275 1059.6,275.8 1062.7,276.4C1064.3,276.7 1065.8,277.2 1067.3,277.6C1068.8,278 1070.4,278.4 1071.9,278.8L1076.4,280.2C1077.9,280.7 1079.4,281.1 1080.9,281.7C1083.9,282.8 1086.9,283.7 1089.8,284.9C1092.7,286.1 1095.7,287.1 1098.6,288.5C1101.5,289.8 1104.4,291.3 1107.2,293C1110,294.7 1112.6,296.6 1115.1,299C1116.3,300.2 1117.4,301.5 1118.5,303.2C1119,304 1119.4,305.1 1119.6,306.3C1119.7,306.9 1119.7,307.5 1119.6,308C1119.6,308.5 1119.5,309 1119.4,309.5C1118.9,311.4 1118.1,313.1 1116.9,314.6C1116.3,315.3 1115.7,316 1114.8,316.7L1114.6,316.8L1114.7,316.7C1114.7,316.6 1114.8,316.6 1114.8,316.5L1114.8,316.4L1114.8,316.7L1114.7,317.3L1113.9,315.3C1115.4,316.6 1116.6,317.9 1117.8,319.5C1118.3,320.3 1118.9,321.3 1119.2,322.6C1119.3,322.9 1119.3,323.3 1119.3,323.6C1119.3,323.9 1119.3,324.2 1119.2,324.5C1119.1,325 1119,325.6 1118.8,326.1C1118.2,328.1 1117.2,329.6 1116.1,331.1C1115,332.6 1113.9,333.9 1112.7,335.2C1110.3,337.8 1107.6,340.1 1104.8,342.1C1104.1,342.6 1103.4,343.1 1102.6,343.6C1102.2,343.8 1101.9,344.1 1101.4,344.3C1100.9,344.6 1100.3,344.8 1099.7,344.8C1098.5,344.9 1097.4,344.5 1096.5,343.8C1096.3,343.6 1096.1,343.4 1095.9,343.2L1094.7,341.7L1095.9,341.9C1093.6,343 1091.1,343.8 1088.7,344.2C1086.2,344.7 1083.8,344.9 1081.3,345.1C1076.4,345.5 1071.5,345.9 1066.6,346.4C1071.4,345.5 1076.3,344.8 1081.2,344C1083.6,343.6 1086,343.2 1088.4,342.6C1090.7,342 1093,341.2 1095,340L1095.7,339.6L1096.2,340.2L1097.4,341.7C1097.5,341.8 1097.6,341.9 1097.7,342C1098.2,342.3 1098.7,342.5 1099.3,342.4C1099.6,342.4 1099.8,342.3 1100.1,342.1C1100.4,341.9 1100.8,341.7 1101.1,341.4C1101.8,340.9 1102.4,340.4 1103.1,339.9C1105.7,337.8 1108.1,335.4 1110.2,332.9C1111.3,331.6 1112.2,330.3 1113.1,329C1113.9,327.6 1114.7,326.2 1115,324.9C1115.2,324.3 1115.2,323.5 1115.1,323.3C1115,322.9 1114.7,322.3 1114.3,321.8C1113.5,320.7 1112.2,319.6 1111.1,318.7L1110.1,318L1110.2,316.7L1110.3,316.1L1110.3,315.8C1110.3,315.6 1110.4,315.3 1110.4,315.1C1110.5,314.6 1110.8,314.2 1111.1,313.9C1111.2,313.7 1111.4,313.6 1111.6,313.4L1111.9,313.1C1112.3,312.8 1112.7,312.3 1113,311.8C1113.7,310.8 1114.2,309.6 1114.4,308.4C1114.6,307.1 1114.5,306.7 1113.9,305.7C1113.3,304.7 1112.4,303.6 1111.4,302.6C1109.4,300.6 1107,298.8 1104.4,297.2C1101.9,295.6 1099.2,294.2 1096.4,293C1093.7,291.7 1090.7,290.7 1087.9,289.5C1085,288.3 1082.1,287.4 1079.2,286.3C1077.7,285.8 1076.3,285.3 1074.8,284.9L1070.4,283.5C1068.9,283.1 1067.4,282.7 1065.9,282.3C1064.4,281.9 1062.9,281.5 1061.4,281.2C1058.4,280.5 1055.4,279.8 1052.4,279.3C1050.9,279 1049.4,278.7 1047.8,278.5L1043.2,277.8C1037.1,277 1030.9,276.4 1024.7,276.2C1021.6,276 1018.5,276 1015.4,275.9C1012.3,275.9 1009.2,275.8 1006.1,275.9C999.9,275.9 993.6,276 987.4,276.1C984.3,276.1 981.2,276.2 978,276.2C974.8,276.2 971.7,276.1 968.6,276C962.3,275.8 956.1,275.6 949.8,275.4L931.1,274.6L926.4,274.4L924.1,274.3L922.9,274.2L922,274.2C921.8,274.2 921.6,274.2 921.4,274.1C920.6,274 919.7,273.6 919,272.8L918.1,271.8L913.6,266.4C905.5,257 897,247.9 888.1,239.2C883.7,234.9 879.1,230.6 874.5,226.5C873.3,225.5 872.2,224.5 871,223.5C870.7,223.2 870.5,223.2 869.8,222.4C869.5,222.1 869.4,221.8 869.2,221.6L869,221.3L868.9,221.2C868.7,220.9 868.3,220.6 867.8,220.2C866.8,219.5 865.5,219 864.2,218.5C862.8,218 861.4,217.7 860,217.4C854.1,216.2 848,215.7 841.8,215.5C835.6,215.3 829.5,215.5 823.3,215.8C810.9,216.5 798.6,218.1 786.4,220.3C774.2,222.5 762.1,225.3 750.1,228.6C747.1,229.4 744.1,230.3 741.2,231.2L732.3,234C726.4,235.9 720.5,237.9 714.6,240C702.9,244.2 691.3,248.8 680,253.9C674.3,256.4 668.7,259.1 663.1,261.8L654.7,265.8C651.9,267.2 649.1,268.5 646.4,270C635.4,275.7 624.6,282 614.3,288.9C609.1,292.4 604.1,296 599.1,299.8C594.8,304.2 590,308.3 585.6,312.7Z" style="fill:rgb(236,122,36);fill-rule:nonzero;"/>
            </g>
        </g>
        <g id="Warstwa_2">
            <g>
                <path d="M137.6,222.8L79.9,209.8L294.9,209.8C304.6,209.8 311.2,213.1 314.8,219.6C315.1,220.1 315.3,220.6 315.4,221.2C315.5,221.8 315.7,222.3 316,222.8L137.6,222.8ZM317,231.4C316.7,235.2 315.9,239 314.5,242.9L276.4,347.3C272.1,358.4 264.4,367 253.1,373.1C242.1,378.7 230.6,381.5 218.5,381.5L79.9,381.5L134.2,232.1L134.4,231.6L317,231.4ZM316.7,226.2C316.7,226.7 316.7,227.2 316.8,227.7C316.9,228.2 316.9,228.7 316.9,229.2L134.4,229.2L93.1,215.4L136.3,226.2L316.7,226.2ZM267.8,238.5L180.1,238.5L141.5,344.7L137.8,355L200.5,355C202.8,354.8 205.4,354.4 208.4,353.8C211.3,353.1 214.3,352.1 217.4,350.6C220.4,349.1 223.3,347.1 226,344.5C228.7,341.9 230.9,338.6 232.5,334.7C232.8,334 233,333.6 233,333.5C233.7,331.9 234.1,330.7 234.5,330.1C234.8,329.1 235.1,328.5 235.2,328.1L260.5,259L267.8,238.5Z" style="fill-rule:nonzero;"/>
                <path d="M300.8,208.8L567.6,208.8C577.8,209.6 584.5,213 587.7,218.9C588.4,220.2 588.8,221.3 588.9,222.1L582.8,222.1L359,221.8L358.8,221.8L300.8,208.8ZM589.8,230.7C589.6,234 588.7,237.8 587.1,242.2L536.2,381.8L487.8,381.8L536.5,247.9L540.4,237.6L495.2,237.6L491.3,248.2L442.6,381.9L394.2,381.9L442.9,248.2L446.8,237.6L401.8,237.6L397.9,247.9L349.2,381.8L300.8,381.8L355.6,230.7L589.8,230.7ZM560,225.5L589.7,225.5C589.7,225.8 589.7,226.2 589.8,226.7C589.9,227.2 589.9,227.8 589.9,228.4L560.7,228.4L355.8,228.2L314.3,214.4L357.5,225.2L560,225.2L560,225.5Z" style="fill-rule:nonzero;"/>
            </g>
        </g>
        <g id="Warstwa_3">
            <g>
                <path d="M680.3,381.5L618.6,381.5C605.8,381.5 599.3,376.4 599.3,366.1L599.3,343C599.3,332.7 605.7,327.6 618.6,327.6L680.3,327.6L680.3,335.3L618.6,335.3C613.5,335.3 610.9,337.9 610.9,343L610.9,366.1C610.9,371.2 613.5,373.8 618.6,373.8L668.7,373.8L668.7,358.4L637.9,358.4L637.9,350.7L680.3,350.7L680.3,381.5Z" style="fill:white;fill-rule:nonzero;stroke:black;stroke-width:2px;"/>
                <path d="M715.9,358.4L707.3,358.4C702.2,358.4 699.6,361 699.6,366.1L699.6,381.5L688,381.5L688,366.1C688,355.8 694.4,350.7 707.3,350.7L742,350.7C747.1,350.7 749.7,348.1 749.7,343C749.7,337.9 747.1,335.3 742,335.3L688,335.3L688,327.6L742,327.6C754.8,327.6 761.3,332.7 761.3,343C761.3,353.3 754.9,358.4 742,358.4L733.4,358.4L761.2,381.5L744.4,381.5L715.9,358.4Z" style="fill:white;fill-rule:nonzero;stroke:black;stroke-width:2px;"/>
                <path d="M788.2,381.5C775.4,381.5 768.9,376.4 768.9,366.1L768.9,343C768.9,332.7 775.3,327.6 788.2,327.6L830.6,327.6C843.4,327.6 849.9,332.7 849.9,343L849.9,366.1C849.9,376.4 843.5,381.5 830.6,381.5L788.2,381.5ZM788.2,335.3C783.1,335.3 780.5,337.9 780.5,343L780.5,366.1C780.5,371.2 783.1,373.8 788.2,373.8L830.6,373.8C835.7,373.8 838.3,371.2 838.3,366.1L838.3,343C838.3,337.9 835.7,335.3 830.6,335.3L788.2,335.3Z" style="fill:white;fill-rule:nonzero;stroke:black;stroke-width:2px;"/>
                <path d="M927,327.6L938.6,327.6L938.6,366.1C938.6,376.4 932.2,381.5 919.3,381.5L876.9,381.5C864.1,381.5 857.6,376.4 857.6,366.1L857.6,327.6L869.2,327.6L869.2,366.1C869.2,371.2 871.8,373.8 876.9,373.8L919.3,373.8C924.4,373.8 927,371.2 927,366.1L927,327.6Z" style="fill:white;fill-rule:nonzero;stroke:black;stroke-width:2px;"/>
                <path d="M957.8,381.5L946.2,381.5L946.2,366.1C946.2,355.8 952.6,350.7 965.5,350.7L1007.9,350.7C1013,350.7 1015.6,348.1 1015.6,343C1015.6,337.9 1013,335.3 1007.9,335.3L946.2,335.3L946.2,327.6L1007.9,327.6C1020.7,327.6 1027.2,332.7 1027.2,343C1027.2,353.3 1020.8,358.4 1007.9,358.4L965.5,358.4C960.4,358.4 957.8,361 957.8,366.1L957.8,381.5Z" style="fill:white;fill-rule:nonzero;stroke:black;stroke-width:2px;"/>
            </g>
        </g>
    </g>
</svg>
