<?xml version="1.0" encoding="UTF-8" standalone="no"?>
<!DOCTYPE svg PUBLIC "-//W3C//DTD SVG 1.1//EN" "http://www.w3.org/Graphics/SVG/1.1/DTD/svg11.dtd">
<svg width="100%" height="100%" viewBox="0 0 42 48" version="1.1" xmlns="http://www.w3.org/2000/svg" xmlns:xlink="http://www.w3.org/1999/xlink" xml:space="preserve" xmlns:serif="http://www.serif.com/" style="fill-rule:evenodd;clip-rule:evenodd;stroke-linejoin:round;stroke-miterlimit:2;">
    <g transform="matrix(1,0,0,1,-11.054,-8.134)">
        <path d="M28.641,12.411L35.475,12.411C36.134,12.411 36.674,11.871 36.674,11.212L36.674,9.333C36.674,8.674 36.134,8.134 35.475,8.134L28.641,8.134C27.982,8.134 27.442,8.674 27.442,9.333L27.442,11.212C27.441,11.871 27.981,12.411 28.641,12.411Z" style="fill:rgb(140,140,140);fill-rule:nonzero;"/>
        <path d="M32,13.971C26.203,13.971 20.951,16.34 17.154,20.159L21.708,23.447C24.453,20.968 28.076,19.444 32.058,19.444C40.591,19.444 47.533,26.386 47.533,34.919C47.533,43.452 40.592,50.394 32.058,50.394C23.524,50.394 16.583,43.453 16.583,34.919C16.583,31.144 17.945,27.684 20.2,24.995L16.78,20.572C13.241,24.325 11.054,29.366 11.054,34.919C11.054,46.47 20.45,55.867 32,55.867C43.55,55.867 52.946,46.47 52.946,34.919C52.946,23.368 43.55,13.971 32,13.971Z" style="fill:rgb(140,140,140);fill-rule:nonzero;"/>
        <path d="M32.158,38.364C31.098,38.364 30.164,37.856 29.556,37.081L29.55,37.089L21.981,27.3C20.372,29.422 19.406,32.056 19.406,34.918C19.406,41.894 25.081,47.568 32.057,47.568C39.033,47.568 44.707,41.893 44.707,34.918C44.707,27.943 39.032,22.267 32.057,22.267C29.02,22.267 26.23,23.344 24.047,25.135L33.865,32.223L33.859,32.231C34.82,32.809 35.468,33.852 35.468,35.055C35.469,36.882 33.988,38.364 32.158,38.364Z" style="fill:rgb(140,140,140);fill-rule:nonzero;"/>
    </g>
</svg>
