<?xml version="1.0" encoding="UTF-8" standalone="no"?>
<!DOCTYPE svg PUBLIC "-//W3C//DTD SVG 1.1//EN" "http://www.w3.org/Graphics/SVG/1.1/DTD/svg11.dtd">
<svg width="100%" height="100%" viewBox="0 0 512 512" version="1.1" xmlns="http://www.w3.org/2000/svg" xmlns:xlink="http://www.w3.org/1999/xlink" xml:space="preserve" xmlns:serif="http://www.serif.com/" style="fill-rule:evenodd;clip-rule:evenodd;stroke-linejoin:round;stroke-miterlimit:2;">
    <g>
        <path d="M504.501,236.302C508.642,236.302 512,232.944 512,228.803L512,168.738C512,166.749 511.21,164.841 509.803,163.435C508.398,162.029 506.49,161.239 504.501,161.239L255.126,161.242C237.099,161.242 220.15,168.262 207.404,181.01L197.103,191.311L7.499,191.308C5.51,191.308 3.602,192.098 2.197,193.505C0.79,194.911 0,196.819 0,198.807L0,228.803C0,232.944 3.358,236.302 7.499,236.302C11.64,236.302 14.998,232.944 14.998,228.803L14.998,206.306L29.996,206.306L29.996,425.374L14.998,440.371L14.998,258.799C14.998,254.657 11.64,251.3 7.499,251.3C3.358,251.3 0,254.657 0,258.799L0,458.476C0,461.509 1.827,464.243 4.629,465.404C5.557,465.788 6.531,465.975 7.498,465.975C9.45,465.975 11.367,465.213 12.802,463.778L40.601,435.979L67.49,435.979C71.632,435.979 74.989,432.621 74.989,428.48L74.989,406.038C87.707,406.861 99.554,412.193 108.647,421.288L188.342,500.983C195.424,508.065 204.839,511.965 214.855,511.965C224.87,511.965 234.286,508.065 241.368,500.983C247.693,494.658 251.277,486.615 252.128,478.342C258.041,481.889 264.726,483.667 271.415,483.667C281.015,483.666 290.619,480.012 297.928,472.703C304.254,466.378 307.837,458.335 308.688,450.062C314.602,453.608 321.288,455.387 327.976,455.387C337.577,455.387 347.179,451.733 354.489,444.424C360.815,438.099 364.397,430.056 365.249,421.782C371.162,425.329 377.848,427.107 384.536,427.107C394.138,427.107 403.74,423.452 411.05,416.143C421.906,405.286 424.693,389.377 419.424,375.918L437.012,375.916L437.012,398.411C437.012,402.553 440.369,405.91 444.511,405.91L471.401,405.91L499.2,433.709C500.635,435.144 502.552,435.906 504.504,435.906C505.47,435.906 506.445,435.719 507.373,435.335C510.175,434.174 512.002,431.44 512.002,428.407L512.002,258.799C512.002,254.657 508.644,251.3 504.503,251.3C500.362,251.3 497.004,254.657 497.004,258.799L497.004,410.302L482.006,395.304L482.006,176.237L497.004,176.237L497.004,228.803C497.002,232.944 500.36,236.302 504.501,236.302ZM44.993,420.981L44.993,206.307L59.991,206.307L59.991,420.981L44.993,420.981ZM400.443,405.535C391.671,414.306 377.399,414.306 368.628,405.535L306.713,343.62C305.296,342.204 304.516,340.321 304.516,338.318C304.516,336.315 305.296,334.432 306.713,333.016C309.641,330.087 309.641,325.339 306.713,322.41C303.783,319.482 299.036,319.483 296.107,322.41C291.858,326.66 289.518,332.309 289.518,338.318C289.518,344.327 291.858,349.976 296.107,354.226L343.882,402.001C352.654,410.773 352.654,425.045 343.882,433.816C335.112,442.587 320.839,442.588 312.067,433.816L297.931,419.679L264.292,386.04C262.875,384.624 262.095,382.742 262.095,380.738C262.095,378.735 262.875,376.852 264.292,375.436C267.22,372.507 267.22,367.759 264.292,364.831C261.363,361.903 256.615,361.903 253.687,364.831C249.438,369.081 247.098,374.73 247.098,380.739C247.098,386.748 249.439,392.398 253.687,396.647L287.325,430.285C291.572,434.534 293.912,440.181 293.912,446.189C293.912,452.198 291.571,457.847 287.322,462.096C278.551,470.867 264.279,470.867 255.507,462.096L221.872,428.461C218.948,425.537 218.948,420.779 221.872,417.856C224.801,414.927 224.801,410.179 221.872,407.251C218.943,404.323 214.195,404.323 211.267,407.251C202.496,416.023 202.496,430.295 211.267,439.067L230.763,458.562C239.533,467.332 239.533,481.605 230.763,490.377C226.513,494.627 220.864,496.966 214.855,496.966C208.846,496.966 203.197,494.626 198.947,490.377L119.253,410.683C107.323,398.752 91.714,391.84 74.989,391.002L74.989,206.307L182.105,206.309L100.924,287.489C86.305,302.108 86.305,325.896 100.924,340.515C115.544,355.135 139.331,355.134 153.95,340.515L228.237,266.228L271.207,266.228C285.228,266.228 298.411,271.688 308.324,281.602L400.443,373.721C409.214,382.492 409.214,396.764 400.443,405.535ZM408.851,360.919L318.929,270.997C306.182,258.25 289.234,251.229 271.207,251.229L225.13,251.229C223.142,251.229 221.234,252.019 219.828,253.425L143.344,329.909C134.574,338.68 120.301,338.681 111.529,329.909C102.757,321.138 102.757,306.866 111.529,298.094L218.008,191.614C227.923,181.7 241.105,176.24 255.126,176.24L437.011,176.237L437.011,360.915L408.851,360.919ZM467.007,390.912L452.009,390.912L452.009,176.238L467.007,176.238L467.007,390.912Z" style="fill:rgb(254,197,0);fill-rule:nonzero;"/>
        <path d="M256,75.026C268.405,75.026 278.497,64.935 278.497,52.529C278.497,40.124 268.405,30.033 256,30.033C243.595,30.033 233.503,40.124 233.503,52.529C233.503,64.935 243.595,75.026 256,75.026ZM256,45.03C260.135,45.03 263.499,48.394 263.499,52.529C263.499,56.665 260.135,60.028 256,60.028C251.865,60.028 248.501,56.665 248.501,52.529C248.501,48.394 251.865,45.03 256,45.03Z" style="fill:rgb(254,197,0);fill-rule:nonzero;"/>
        <path d="M196.009,30.033C183.603,30.033 173.512,40.124 173.512,52.529C173.512,64.935 183.603,75.026 196.009,75.026C208.414,75.026 218.505,64.935 218.505,52.529C218.505,40.124 208.414,30.033 196.009,30.033ZM196.009,60.028C191.873,60.028 188.51,56.665 188.51,52.529C188.51,48.394 191.873,45.03 196.009,45.03C200.144,45.03 203.508,48.394 203.508,52.529C203.508,56.665 200.144,60.028 196.009,60.028Z" style="fill:rgb(254,197,0);fill-rule:nonzero;"/>
        <path d="M315.991,75.026C328.397,75.026 338.488,64.935 338.488,52.529C338.488,40.124 328.397,30.033 315.991,30.033C303.586,30.033 293.495,40.124 293.495,52.529C293.495,64.935 303.586,75.026 315.991,75.026ZM315.991,45.03C320.127,45.03 323.49,48.394 323.49,52.529C323.49,56.665 320.127,60.028 315.991,60.028C311.856,60.028 308.492,56.665 308.492,52.529C308.492,48.394 311.856,45.03 315.991,45.03Z" style="fill:rgb(254,197,0);fill-rule:nonzero;"/>
        <path d="M67.527,105.022L223.894,105.022L235.215,132.356C238.763,140.923 246.728,146.244 256,146.244C265.272,146.244 273.236,140.923 276.784,132.356L288.106,105.022L444.473,105.022C448.614,105.022 451.972,101.664 451.972,97.523L451.972,7.536C451.972,3.395 448.614,0.037 444.473,0.037L67.527,0.037C63.386,0.037 60.028,3.395 60.028,7.536L60.028,97.523C60.028,101.664 63.386,105.022 67.527,105.022ZM75.026,15.035L436.974,15.035L436.974,90.024L283.096,90.024C280.063,90.024 277.329,91.851 276.168,94.653L262.928,126.617C261.149,130.912 257.176,131.246 256,131.246C254.825,131.246 250.851,130.913 249.072,126.617L235.833,94.653C234.672,91.851 231.937,90.024 228.905,90.024L75.027,90.024L75.027,15.035L75.026,15.035Z" style="fill:rgb(254,197,0);fill-rule:nonzero;"/>
    </g>
</svg>
