<?xml version="1.0" encoding="UTF-8" standalone="no"?>
<!DOCTYPE svg PUBLIC "-//W3C//DTD SVG 1.1//EN" "http://www.w3.org/Graphics/SVG/1.1/DTD/svg11.dtd">
<svg width="100%" height="100%" viewBox="0 0 26 26" version="1.1" xmlns="http://www.w3.org/2000/svg" xmlns:xlink="http://www.w3.org/1999/xlink" xml:space="preserve" xmlns:serif="http://www.serif.com/" style="fill-rule:evenodd;clip-rule:evenodd;stroke-linejoin:round;stroke-miterlimit:2;">
    <g transform="matrix(1,0,0,1,-3.0328,-3.0028)">
        <g transform="matrix(-1,0,0,1,31.6664,0)">
            <path d="M27.36,6.15L25.09,3.88C24.528,3.319 23.765,3.003 22.97,3.003C22.015,3.003 21.115,3.459 20.55,4.23L18.34,7.23C17.781,7.997 17.618,8.984 17.9,9.89L18.03,10.27C18.3,11.16 18.65,12.27 18.87,13.01C18.938,13.242 18.921,13.49 18.82,13.71C18.278,14.807 17.577,15.818 16.74,16.71C16.551,16.898 16.444,17.153 16.444,17.42C16.444,17.687 16.551,17.942 16.74,18.13C17.127,18.515 17.763,18.515 18.15,18.13C19.144,17.092 19.973,15.908 20.61,14.62C20.944,13.946 21.005,13.168 20.78,12.45C20.57,11.73 20.21,10.59 19.93,9.7L19.81,9.31C19.734,9.006 19.804,8.684 20,8.44L22.21,5.44C22.398,5.183 22.698,5.031 23.017,5.031C23.28,5.031 23.533,5.135 23.72,5.32L24.39,5.99L22.39,9.09C22.287,9.251 22.232,9.439 22.232,9.63C22.232,10.178 22.682,10.629 23.23,10.63C23.568,10.632 23.884,10.462 24.07,10.18L25.84,7.44L26,7.59C26.469,8.1 26.714,8.778 26.68,9.47C26.68,11.23 25.49,14.47 19.95,19.91C14.14,25.61 9.53,27.91 7.62,25.98L5.29,23.68C5.085,23.475 4.979,23.19 5,22.9C5.023,22.609 5.173,22.342 5.41,22.17L8.41,19.96C8.663,19.775 8.99,19.719 9.29,19.81L11.18,20.4L9.05,21.91C8.783,22.097 8.624,22.403 8.624,22.729C8.624,22.937 8.689,23.14 8.81,23.31C8.999,23.575 9.305,23.732 9.63,23.73C9.834,23.73 10.033,23.667 10.2,23.55L14,20.88C14.271,20.694 14.433,20.385 14.433,20.056C14.433,19.85 14.369,19.649 14.25,19.48C14.118,19.305 13.931,19.179 13.72,19.12L9.92,17.9C9.014,17.618 8.027,17.781 7.26,18.34L4.26,20.55C3.489,21.115 3.033,22.015 3.033,22.97C3.033,23.765 3.349,24.528 3.91,25.09L6.18,27.37C7.006,28.195 8.133,28.65 9.3,28.63C11.82,28.63 15.62,26.88 21.3,21.31C26.14,16.56 28.61,12.57 28.63,9.45C28.679,8.223 28.22,7.028 27.36,6.15Z" style="fill:rgb(254,197,0);fill-rule:nonzero;"/>
        </g>
    </g>
</svg>
