<?xml version="1.0" encoding="UTF-8" standalone="no"?>
<!DOCTYPE svg PUBLIC "-//W3C//DTD SVG 1.1//EN" "http://www.w3.org/Graphics/SVG/1.1/DTD/svg11.dtd">
<svg width="100%" height="100%" viewBox="0 0 951 625" version="1.1" xmlns="http://www.w3.org/2000/svg" xmlns:xlink="http://www.w3.org/1999/xlink" xml:space="preserve" xmlns:serif="http://www.serif.com/" style="fill-rule:evenodd;clip-rule:evenodd;stroke-linejoin:round;stroke-miterlimit:2;">
    <g transform="matrix(1,0,0,1,0,-162.661)">
        <g>
            <path d="M949.869,741.307C949.797,739.243 949.724,737.168 949.652,735.086C949.577,733.004 949.5,730.916 949.423,728.818L949.363,727.248L949.333,726.461L949.325,726.264L949.305,724.504L949.299,724.422L949.274,724.096L949.073,721.489C948.802,718.01 948.531,714.516 948.26,711.022L948.053,708.377L947.741,704.947C947.525,702.666 947.31,700.386 947.095,698.111C946.872,695.84 946.648,693.572 946.426,691.312C946.311,690.183 946.197,689.056 946.083,687.931C945.945,686.89 945.807,685.851 945.669,684.812C944.53,676.57 943.513,668.47 942.061,660.683C941.375,656.787 940.742,652.956 940.03,649.222C939.253,645.497 938.493,641.855 937.753,638.308C936.351,631.21 934.59,624.581 933.106,618.453C932.726,616.924 932.354,615.424 931.991,613.961C931.587,612.504 931.191,611.084 930.806,609.697C930.024,606.931 929.283,604.306 928.585,601.842C927.875,599.381 927.249,597.071 926.595,594.953C925.921,592.842 925.303,590.902 924.744,589.15C923.915,586.576 923.216,584.408 922.665,582.695C921.85,580.166 919.178,578.744 916.622,579.472L756.009,625.243C753.562,625.94 752.045,628.378 752.511,630.88C752.685,631.814 752.884,632.884 753.106,634.081C753.335,635.286 753.589,636.622 753.865,638.075C754.126,639.532 754.331,641.128 754.594,642.815C754.852,644.504 755.126,646.303 755.415,648.198C755.556,649.145 755.723,650.11 755.854,651.108C755.968,652.108 756.084,653.133 756.204,654.178C756.651,658.362 757.319,662.848 757.617,667.658C757.814,670.051 758.018,672.51 758.226,675.019C758.382,677.537 758.46,680.117 758.594,682.728C758.942,687.941 758.876,693.369 758.976,698.843L758.999,700.882L758.927,702.687C758.886,703.89 758.844,705.095 758.803,706.304C758.771,707.507 758.738,708.714 758.705,709.923L758.667,711.73L758.557,714.332C758.409,717.834 758.258,721.334 758.109,724.822L757.998,727.435L757.983,727.761L757.98,727.841C757.982,728.234 757.95,724.73 757.96,726.243L757.947,726.372L757.899,726.888L757.804,727.919C757.68,729.292 757.556,730.657 757.433,732.021C757.314,733.38 757.195,734.736 757.078,736.083C756.918,737.425 756.759,738.761 756.599,740.087C756.258,742.737 756.048,745.362 755.626,747.919C755.256,750.478 754.892,752.991 754.536,755.454C754.11,757.899 753.694,760.292 753.29,762.62C752.924,764.95 752.434,767.194 751.998,769.366C751.542,771.534 751.179,773.639 750.706,775.637C750.245,777.635 749.803,779.547 749.382,781.367C749.174,782.265 748.972,783.14 748.776,783.992C748.574,784.722 748.379,785.43 748.188,786.117C748.076,786.537 747.97,786.931 747.861,787.338L944.3,787.338C946.933,787.338 949.126,785.272 949.226,782.641C949.227,782.625 949.227,782.61 949.228,782.594C949.391,778.936 949.559,775.18 949.731,771.34C949.804,767.504 949.878,763.584 949.955,759.598C950.067,755.616 949.946,751.569 949.935,747.477C949.912,745.432 949.891,743.375 949.869,741.307Z" style="fill:rgb(140,140,140);fill-rule:nonzero;"/>
            <path d="M898.791,535.129C901.426,534.068 902.628,531.016 901.413,528.449C900.873,527.308 900.242,525.974 899.527,524.465C898.852,523.047 898.106,521.477 897.296,519.768C896.247,517.631 895.113,515.321 893.9,512.852C892.678,510.393 891.379,507.776 890.007,505.018C889.312,503.584 888.629,502.401 887.914,501.055C887.202,499.739 886.473,498.393 885.728,497.018C884.231,494.274 882.7,491.405 881.057,488.467C879.36,485.561 877.606,482.555 875.803,479.465C874.899,477.924 873.982,476.361 873.054,474.781C872.083,473.225 871.1,471.65 870.107,470.058C868.11,466.887 866.069,463.646 863.995,460.352C859.618,453.902 855.261,447.156 850.398,440.591C849.204,438.938 848.003,437.279 846.8,435.615L844.99,433.121L843.106,430.668C840.586,427.405 838.056,424.131 835.526,420.856C832.951,417.619 830.287,414.45 827.676,411.269C826.356,409.689 825.077,408.086 823.73,406.542C822.379,405.003 821.033,403.468 819.69,401.939C818.347,400.416 817.01,398.896 815.679,397.385C814.356,395.868 813.022,394.377 811.646,392.935C808.922,390.034 806.232,387.169 803.586,384.35C800.936,381.54 798.192,378.899 795.581,376.259C792.951,373.633 790.395,371.054 787.785,368.659C785.204,366.243 782.692,363.893 780.264,361.619C777.846,359.34 775.377,357.27 773.077,355.22C770.758,353.192 768.535,351.249 766.421,349.401C764.253,347.614 762.196,345.92 760.264,344.328C758.33,342.742 756.521,341.258 754.848,339.886C753.172,338.519 751.569,337.334 750.156,336.229C748.098,334.65 746.36,333.316 744.979,332.256C742.874,330.64 739.873,330.985 738.181,333.032L651.977,437.378C650.352,439.346 650.491,442.222 652.304,444.018C653.025,444.73 653.857,445.554 654.793,446.481C655.69,447.382 656.718,448.336 657.772,449.45C658.826,450.563 659.964,451.768 661.181,453.054C662.4,454.334 663.696,455.696 665.061,457.132C666.378,458.614 667.763,460.175 669.208,461.802C670.635,463.444 672.195,465.074 673.679,466.892C675.176,468.692 676.723,470.552 678.315,472.465C679.936,474.343 681.483,476.382 683.085,478.442C684.67,480.516 686.364,482.561 687.956,484.754C689.549,486.94 691.168,489.162 692.807,491.412C693.643,492.519 694.436,493.674 695.217,494.846C696.007,496.01 696.801,497.178 697.598,498.352C698.396,499.52 699.199,500.694 700.002,501.872C700.804,503.05 701.539,504.282 702.314,505.487C703.836,507.919 705.414,510.315 706.91,512.764C708.368,515.237 709.827,517.711 711.279,520.174L712.369,522.012L713.39,523.889C714.072,525.135 714.751,526.379 715.428,527.616C718.223,532.505 720.582,537.546 723.051,542.282C724.181,544.71 725.292,547.096 726.38,549.434C726.924,550.598 727.462,551.75 727.994,552.887C728.487,554.045 728.973,555.188 729.453,556.317C730.418,558.563 731.356,560.751 732.265,562.864C733.104,565.007 733.914,567.077 734.692,569.063C735.082,570.055 735.462,571.026 735.834,571.975C736.186,572.901 736.622,573.903 736.856,574.674C737.411,576.293 737.936,577.83 738.43,579.274C738.934,580.708 739.407,582.049 739.843,583.29C740.416,585.001 740.942,586.569 741.417,587.987C741.946,589.571 742.412,590.971 742.812,592.171C743.71,594.864 746.692,596.237 749.327,595.179L898.791,535.129Z" style="fill:rgb(140,140,140);fill-rule:nonzero;"/>
            <path d="M459.808,348.748C461.114,348.926 462.558,349.123 464.132,349.338C465.696,349.61 467.388,349.905 469.195,350.22C470.999,350.53 472.919,350.859 474.942,351.207C476.7,351.499 478.521,351.923 480.414,352.319L534.818,241.037C532.121,240.616 529.446,240.198 526.825,239.789C525.029,239.522 523.261,239.215 521.5,238.995C519.739,238.782 517.999,238.571 516.282,238.363C512.853,237.956 509.518,237.559 506.293,237.176C503.059,236.899 499.934,236.631 496.935,236.374C493.935,236.144 491.074,235.841 488.335,235.711C485.601,235.577 483.007,235.449 480.57,235.329C478.135,235.214 475.857,235.107 473.752,235.007C471.645,234.973 469.709,234.942 467.96,234.914C465.5,234.884 463.412,234.859 461.738,234.839C459.083,234.807 456.886,236.882 456.759,239.534L451.798,343.111C451.676,345.663 453.517,347.885 456.048,348.232C457.126,348.38 458.383,348.553 459.808,348.748Z" style="fill:rgb(140,140,140);fill-rule:nonzero;"/>
            <path d="M606.027,405.781C607.489,406.844 608.875,407.852 610.177,408.801C611.481,409.735 612.702,410.609 613.831,411.418C614.32,411.754 615.127,412.366 615.786,412.856C616.465,413.363 617.112,413.846 617.725,414.304C619.064,415.303 620.246,416.185 621.258,416.94C623.534,418.638 626.764,418.064 628.323,415.69L699.353,307.494C700.913,305.12 700.156,301.927 697.692,300.514C696.596,299.886 695.317,299.152 693.869,298.321C693.204,297.939 692.504,297.538 691.768,297.116C690.967,296.663 690.13,296.189 689.257,295.695C687.236,294.581 685.05,293.378 682.715,292.091C680.379,290.818 677.892,289.464 675.272,288.035C672.775,286.784 670.151,285.469 667.412,284.096C664.662,282.754 661.856,281.261 658.847,279.906C655.852,278.534 652.756,277.115 649.574,275.656C646.413,274.164 643.077,272.809 639.691,271.387C636.291,269.995 632.87,268.473 629.297,267.13C628.392,266.787 627.473,266.44 626.561,266.094L595.919,399.092C597.613,400.156 599.209,401.284 600.781,402.302C602.611,403.515 604.361,404.676 606.027,405.781Z" style="fill:rgb(140,140,140);fill-rule:nonzero;"/>
            <path d="M364.434,348.206C365.806,348.025 367.153,347.801 368.498,347.659C369.843,347.523 371.172,347.388 372.482,347.254C375.097,346.983 377.64,346.719 380.101,346.463C382.569,346.298 384.954,346.138 387.243,345.984C388.385,345.906 389.503,345.83 390.596,345.755C391.686,345.682 392.778,345.589 393.714,345.588C395.643,345.537 397.474,345.49 399.193,345.445C400.907,345.391 402.509,345.34 403.993,345.293C405.822,345.281 407.502,345.27 409.018,345.26C410.688,345.251 412.164,345.243 413.426,345.236C416.266,345.221 418.498,342.816 418.312,339.982L411.918,242.412C411.731,239.578 409.205,237.485 406.388,237.841C405.135,237.999 403.672,238.184 402.015,238.393C400.479,238.588 398.778,238.805 396.926,239.041C394.738,239.366 392.372,239.716 389.843,240.091C387.322,240.475 384.638,240.884 381.809,241.315C380.361,241.519 379.028,241.79 377.629,242.054C376.234,242.32 374.807,242.593 373.35,242.871C370.441,243.433 367.412,244.019 364.274,244.625C361.161,245.334 357.941,246.068 354.632,246.821C352.981,247.2 351.307,247.585 349.613,247.975C347.921,248.371 346.224,248.855 344.503,249.3C341.068,250.215 337.561,251.15 333.993,252.1C330.461,253.165 326.87,254.247 323.236,255.343C321.424,255.904 319.593,256.433 317.773,257.032C315.961,257.651 314.136,258.272 312.306,258.897C310.479,259.523 308.645,260.151 306.806,260.782C304.966,261.408 303.123,262.037 301.305,262.754C297.66,264.145 294.001,265.542 290.342,266.939C286.699,268.365 283.116,269.945 279.525,271.44C277.735,272.203 275.94,272.939 274.171,273.722C272.414,274.533 270.663,275.341 268.918,276.147C267.177,276.953 265.442,277.757 263.717,278.556C261.992,279.354 260.274,280.14 258.604,281.007C255.252,282.699 251.941,284.371 248.685,286.015C245.428,287.648 242.324,289.45 239.241,291.109C236.172,292.799 233.154,294.411 230.307,296.148C227.444,297.846 224.659,299.499 221.965,301.097C219.263,302.673 216.757,304.375 214.301,305.913C211.862,307.476 209.525,308.975 207.302,310.4C205.127,311.893 203.063,313.309 201.124,314.64C199.19,315.972 197.38,317.218 195.706,318.371C194.034,319.524 192.555,320.667 191.192,321.655C189.345,323.019 187.768,324.183 186.492,325.125C184.361,326.698 183.861,329.669 185.351,331.86L225.866,391.426C227.308,393.546 230.127,394.211 232.36,392.95C233.389,392.37 234.605,391.683 235.992,390.901C237.201,390.232 238.509,389.442 239.986,388.673C241.462,387.903 243.058,387.073 244.763,386.185C246.463,385.296 248.273,384.35 250.18,383.353C252.12,382.423 254.159,381.445 256.287,380.425C258.425,379.429 260.594,378.288 262.933,377.293C265.254,376.274 267.654,375.221 270.122,374.138C272.565,373.013 275.153,372.03 277.771,370.98C280.403,369.96 283.039,368.806 285.8,367.831C288.549,366.84 291.345,365.833 294.174,364.813C295.577,364.28 297.021,363.829 298.468,363.367C299.912,362.902 301.364,362.435 302.821,361.966C304.275,361.496 305.735,361.024 307.199,360.55C308.671,360.103 310.164,359.703 311.647,359.275C314.626,358.451 317.585,357.537 320.585,356.771C323.587,356.028 326.589,355.285 329.579,354.546C331.063,354.151 332.569,353.842 334.068,353.533C335.564,353.218 337.056,352.904 338.543,352.591C340.025,352.276 341.502,351.963 342.972,351.651C344.445,351.357 345.926,351.13 347.387,350.867C350.309,350.36 353.195,349.858 356.035,349.366C358.885,348.973 361.688,348.585 364.434,348.206Z" style="fill:rgb(140,140,140);fill-rule:nonzero;"/>
            <path d="M88.175,425.22C87.113,426.722 86.047,428.231 84.976,429.746C83.908,431.26 82.836,432.78 81.76,434.305C80.689,435.832 79.687,437.416 78.645,438.974C76.591,442.111 74.489,445.224 72.477,448.396C70.512,451.595 68.547,454.794 66.59,457.981L65.13,460.367L63.744,462.792C62.823,464.404 61.905,466.013 60.99,467.614C57.25,473.967 54.001,480.461 50.699,486.629C49.162,489.774 47.65,492.867 46.17,495.895C45.436,497.407 44.709,498.905 43.992,500.383C43.317,501.881 42.651,503.362 41.993,504.824C40.683,507.742 39.409,510.582 38.176,513.328C37.026,516.109 35.914,518.795 34.847,521.373C33.801,523.959 32.744,526.406 31.843,528.781C30.954,531.158 30.11,533.414 29.316,535.533C28.526,537.65 27.787,539.631 27.104,541.463C26.473,543.313 25.894,545.012 25.37,546.547C24.69,548.565 24.106,550.297 23.629,551.715C22.784,554.221 24.069,556.94 26.539,557.887L64.249,572.344C66.649,573.264 69.352,572.19 70.461,569.871C71.011,568.723 71.668,567.348 72.423,565.769C73.049,564.468 73.741,563.027 74.496,561.458C75.298,559.911 76.165,558.241 77.092,556.454C78.016,554.673 78.998,552.774 80.034,550.774C81.078,548.78 82.28,546.735 83.473,544.575C84.681,542.427 85.94,540.188 87.243,537.87C88.616,535.597 90.035,533.245 91.495,530.827C92.222,529.62 92.959,528.397 93.705,527.159C94.49,525.944 95.285,524.716 96.088,523.471C97.694,520.991 99.335,518.459 101.004,515.881C104.55,510.861 108.018,505.574 111.937,500.475C112.894,499.186 113.855,497.893 114.819,496.596L116.264,494.649L117.778,492.745C119.794,490.206 121.818,487.659 123.842,485.112C125.903,482.596 128.042,480.145 130.121,477.673C131.175,476.446 132.187,475.194 133.266,474.001C134.346,472.81 135.422,471.622 136.494,470.439C137.564,469.257 138.629,468.08 139.689,466.908C140.739,465.73 141.799,464.573 142.9,463.464C145.066,461.221 147.206,459.005 149.311,456.824C151.412,454.647 153.605,452.627 155.675,450.585C157.761,448.558 159.779,446.558 161.857,444.725C163.901,442.865 165.889,441.056 167.813,439.305C169.721,437.544 171.687,435.972 173.503,434.394C175.331,432.837 177.083,431.345 178.749,429.926C180.385,428.631 181.937,427.403 183.395,426.247C184.845,425.093 186.202,424.012 187.457,423.012C188.033,422.536 188.813,421.966 189.472,421.465C190.148,420.954 190.793,420.468 191.405,420.007C192.738,419 193.915,418.112 194.923,417.352C197.19,415.641 197.541,412.379 195.697,410.219L152.762,359.92C150.918,357.76 147.641,357.595 145.596,359.565C144.687,360.441 143.624,361.464 142.422,362.623C141.87,363.154 141.288,363.715 140.678,364.302C140.057,364.905 139.466,365.454 138.696,366.241C137.224,367.726 135.633,369.333 133.932,371.049C132.24,372.766 130.439,374.593 128.54,376.519C126.775,378.431 124.919,380.441 122.983,382.538C121.071,384.651 119.009,386.78 117.014,389.114C115.011,391.436 112.941,393.837 110.812,396.304C108.657,398.742 106.572,401.361 104.427,404.018C102.298,406.689 100.054,409.354 97.913,412.178C95.778,415.002 93.608,417.873 91.412,420.781C90.296,422.222 89.229,423.71 88.175,425.22Z" style="fill:rgb(140,140,140);fill-rule:nonzero;"/>
            <path d="M10.155,601.572C9.904,602.808 9.61,604.256 9.277,605.892C8.972,607.394 8.634,609.058 8.266,610.869C7.905,612.721 7.552,614.908 7.158,617.14C6.77,619.394 6.358,621.792 5.924,624.32C5.714,625.58 5.474,626.882 5.275,628.195C5.098,629.5 4.918,630.834 4.733,632.195C4.029,637.648 3.102,643.515 2.568,649.783C2.258,652.906 1.94,656.113 1.615,659.392C1.347,662.675 1.168,666.037 0.937,669.445C0.397,676.256 0.298,683.32 0.073,690.466L0,693.152L0.013,695.849C0.023,697.65 0.033,699.454 0.043,701.263C0.054,703.07 0.065,704.88 0.075,706.691L0.092,709.408L0.196,712.127C0.343,715.744 0.49,719.363 0.637,722.967L0.748,725.662L0.782,726.535L0.83,727.185L0.926,728.484C1.054,730.216 1.181,731.943 1.308,733.664C1.435,735.385 1.562,737.098 1.687,738.803C1.86,740.58 2.031,742.352 2.203,744.112C2.376,745.87 2.548,747.616 2.719,749.352C2.805,750.217 2.891,751.081 2.977,751.94C3.084,752.786 3.191,753.629 3.297,754.469C3.723,757.819 4.142,761.114 4.552,764.34C5.047,767.551 5.531,770.694 6.001,773.752C6.441,776.809 7.008,779.766 7.529,782.625C7.572,782.854 7.615,783.08 7.657,783.307C8.092,785.645 10.126,787.338 12.503,787.338L25.794,787.338C28.632,787.338 30.884,784.949 30.717,782.117C30.672,781.361 30.626,780.597 30.575,779.826C30.409,777.07 30.209,774.228 30.145,771.295C30.049,768.367 29.951,765.359 29.85,762.285C29.831,759.213 29.812,756.074 29.793,752.881C29.788,752.084 29.783,751.283 29.778,750.481C29.795,749.69 29.813,748.895 29.831,748.096C29.866,746.504 29.901,744.899 29.937,743.284C29.972,741.673 30.008,740.05 30.044,738.419C30.124,736.712 30.203,734.995 30.284,733.273C30.364,731.55 30.445,729.82 30.525,728.085L30.586,726.782L30.616,726.13L30.62,726.048C30.62,725.841 30.624,726.239 30.626,726.171L30.638,726.013L30.663,725.699L30.865,723.176C31.133,719.811 31.402,716.436 31.672,713.059L31.878,710.532L32.169,708.011C32.363,706.333 32.556,704.657 32.749,702.984C32.941,701.312 33.133,699.644 33.324,697.982L33.609,695.494L33.978,693.023C34.99,686.453 35.85,679.99 37.11,673.802C37.701,670.702 38.23,667.652 38.837,664.683C39.498,661.726 40.144,658.833 40.773,656.017C41.937,650.376 43.446,645.132 44.674,640.271C44.989,639.058 45.297,637.869 45.598,636.709C45.916,635.566 46.259,634.484 46.575,633.412C47.212,631.279 47.817,629.256 48.385,627.353C48.966,625.435 49.443,623.72 49.999,621.999C50.582,620.243 51.116,618.634 51.6,617.179C52.126,615.593 52.591,614.193 52.989,612.993C53.884,610.3 52.321,607.413 49.577,606.682L16.258,597.797C13.513,597.064 10.721,598.789 10.155,601.572Z" style="fill:rgb(140,140,140);fill-rule:nonzero;"/>
            <path d="M387.317,774.27C398.157,779.569 409.64,782.081 420.945,782.081C449.323,782.081 476.595,766.27 489.898,739.058C492.46,733.82 494.443,728.037 495.733,722.591L573.31,385.874L602.854,257.641L621.157,178.204C623.287,168.959 615.933,162.661 608.555,162.661C604.236,162.661 599.908,164.82 597.468,169.809L560.223,245.992L505.279,358.378L352.104,671.689C333.501,709.74 349.267,755.668 387.317,774.27ZM423.789,665.836C444.548,665.836 461.377,682.664 461.377,703.424C461.377,724.182 444.548,741.012 423.789,741.012C403.03,741.012 386.201,724.182 386.201,703.424C386.201,682.662 403.03,665.836 423.789,665.836Z" style="fill:rgb(140,140,140);fill-rule:nonzero;"/>
        </g>
    </g>
</svg>
