<?xml version="1.0" encoding="UTF-8" standalone="no"?>
<!DOCTYPE svg PUBLIC "-//W3C//DTD SVG 1.1//EN" "http://www.w3.org/Graphics/SVG/1.1/DTD/svg11.dtd">
<svg width="100%" height="100%" viewBox="0 0 512 512" version="1.1" xmlns="http://www.w3.org/2000/svg" xmlns:xlink="http://www.w3.org/1999/xlink" xml:space="preserve" xmlns:serif="http://www.serif.com/" style="fill-rule:evenodd;clip-rule:evenodd;stroke-linejoin:round;stroke-miterlimit:2;">
    <g>
        <g>
            <path d="M389.654,281.199C396.894,276.551 403.087,270.2 407.555,262.464C415.694,248.37 417.029,231.62 411.795,216.715C423.779,206.424 431,191.249 431,174.976C431,158.703 423.779,143.528 411.795,133.237C417.028,118.332 415.693,101.582 407.555,87.488C399.417,73.394 385.576,63.862 370.049,60.942C367.128,45.419 357.595,31.579 343.5,23.442C329.403,15.305 312.649,13.97 297.745,19.202C287.452,7.219 272.276,0 256,0C239.724,0 224.548,7.219 214.255,19.203C199.35,13.97 182.596,15.305 168.5,23.443C154.405,31.58 144.872,45.42 141.95,60.943C126.425,63.864 112.583,73.396 104.445,87.489C96.306,101.583 94.971,118.333 100.205,133.238C88.221,143.528 81,158.703 81,174.976C81,191.249 88.221,206.424 100.205,216.715C94.972,231.62 96.307,248.37 104.445,262.464C108.912,270.201 115.105,276.552 122.345,281.2L4.649,398.879L104.732,411.931L117.787,512L256,373.806L394.213,512L407.268,411.931L507.351,398.879L389.654,281.199ZM401,174.976C401,184.819 395.185,193.779 386.184,197.803L370.129,204.981C372.651,195.396 374.001,185.341 374.001,174.976C374.001,164.611 372.652,154.555 370.129,144.971L386.184,152.149C395.185,156.173 401,165.133 401,174.976ZM171.137,276.289L172.957,258.711C187.205,272.838 205.027,283.362 224.929,288.8L210.679,299.115C202.694,304.896 192.025,305.453 183.499,300.531C174.975,295.611 170.122,286.095 171.137,276.289ZM154.673,259.827C144.86,260.842 135.348,255.989 130.426,247.465C125.504,238.941 126.061,228.274 131.843,220.29L142.16,206.043C147.598,225.943 158.124,243.762 172.254,258.008L154.673,259.827ZM168,174.976C168,126.459 207.477,86.988 256,86.988C304.523,86.988 344,126.459 344,174.976C344,223.493 304.523,262.964 256,262.964C207.477,262.964 168,223.493 168,174.976ZM339.043,258.712L340.863,276.29C341.878,286.095 337.025,295.611 328.5,300.533C319.974,305.455 309.308,304.899 301.32,299.117L287.07,288.802C306.973,283.363 324.795,272.839 339.043,258.712ZM339.746,258.009C353.876,243.763 364.401,225.944 369.84,206.044L380.157,220.291C385.939,228.276 386.496,238.943 381.574,247.466C376.652,255.99 367.126,260.844 357.327,259.828L339.746,258.009ZM357.327,90.124C367.136,89.108 376.652,93.962 381.574,102.486C386.496,111.01 385.939,121.677 380.157,129.661L369.84,143.908C364.402,124.008 353.876,106.189 339.746,91.943L357.327,90.124ZM301.32,50.836C309.305,45.055 319.974,44.498 328.5,49.42C337.026,54.342 341.878,63.857 340.863,73.663L339.043,91.241C324.795,77.114 306.973,66.59 287.071,61.152L301.32,50.836ZM233.17,44.811C237.195,35.811 246.156,29.996 256,29.996C265.844,29.996 274.805,35.811 278.83,44.811L286.011,60.864C276.425,58.342 266.368,56.992 256,56.992C245.632,56.992 235.575,58.341 225.989,60.864L233.17,44.811ZM183.5,49.419C192.026,44.497 202.693,45.053 210.68,50.835L224.93,61.15C205.028,66.587 187.206,77.112 172.958,91.239L171.138,73.661C170.122,63.857 174.975,54.341 183.5,49.419ZM130.426,102.486C135.348,93.962 144.871,89.109 154.673,90.124L172.254,91.943C158.124,106.189 147.599,124.008 142.16,143.908L131.843,129.661C126.061,121.677 125.504,111.01 130.426,102.486ZM111,174.976C111,165.133 116.815,156.173 125.816,152.149L141.871,144.971C139.349,154.556 137.999,164.611 137.999,174.976C137.999,185.341 139.348,195.397 141.871,204.981L125.816,197.803C116.815,193.778 111,184.819 111,174.976ZM139.654,447.714L131.496,385.171L68.944,377.013L145.457,300.51C150.048,311.23 158.007,320.451 168.499,326.508C182.595,334.645 199.35,335.979 214.254,330.748C221.034,338.642 229.939,344.449 239.875,347.507L139.654,447.714ZM233.17,305.141L225.989,289.088C235.575,291.61 245.632,292.96 256,292.96C266.368,292.96 276.425,291.611 286.011,289.088L278.83,305.141C274.805,314.141 265.844,319.956 256,319.956C246.156,319.956 237.195,314.141 233.17,305.141ZM380.504,385.171L372.346,447.714L272.125,347.508C282.061,344.45 290.966,338.643 297.746,330.749C312.651,335.982 329.405,334.646 343.501,326.509C353.994,320.452 361.953,311.231 366.544,300.511L443.057,377.014L380.504,385.171Z" style="fill:rgb(126,130,136);fill-rule:nonzero;"/>
        </g>
    </g>
</svg>
