<?xml version="1.0" encoding="UTF-8" standalone="no"?>
<!DOCTYPE svg PUBLIC "-//W3C//DTD SVG 1.1//EN" "http://www.w3.org/Graphics/SVG/1.1/DTD/svg11.dtd">
<svg width="100%" height="100%" viewBox="0 0 478 478" version="1.1" xmlns="http://www.w3.org/2000/svg" xmlns:xlink="http://www.w3.org/1999/xlink" xml:space="preserve" xmlns:serif="http://www.serif.com/" style="fill-rule:evenodd;clip-rule:evenodd;stroke-linejoin:round;stroke-miterlimit:2;">
    <g transform="matrix(1,0,0,1,-17.38,-17.38)">
        <g id="Layer_2">
            <g>
                <g>
                    <g>
                        <path d="M157.31,226.23C155.52,226.23 153.73,225.55 152.36,224.18L125.58,197.4L73.01,197.4C71.15,197.4 69.37,196.66 68.06,195.35L57.05,184.34C54.32,181.61 54.32,177.17 57.05,174.44C59.78,171.71 64.22,171.71 66.95,174.44L75.91,183.4L128.48,183.4C130.34,183.4 132.12,184.14 133.43,185.45L157.31,209.33L191.73,174.91C195.63,171.01 200.82,168.86 206.34,168.86L226.35,168.86L228.55,166.65C231.28,163.91 235.71,163.91 238.45,166.64C241.19,169.37 241.19,173.8 238.46,176.54L234.21,180.8C232.9,182.12 231.11,182.86 229.25,182.86L206.34,182.86C204.56,182.86 202.88,183.55 201.63,184.81L162.26,224.18C160.89,225.54 159.1,226.23 157.31,226.23Z" style="fill:rgb(254,197,0);fill-rule:nonzero;"/>
                    </g>
                    <g>
                        <path d="M29.47,153.86C27.68,153.86 25.89,153.18 24.52,151.81L19.44,146.73C18.13,145.42 17.39,143.64 17.39,141.78L17.38,73.01C17.38,71.14 18.13,69.35 19.45,68.04L20.54,66.96C23.28,64.25 27.69,64.26 30.42,66.98L94.03,130.59L130.58,94.03L66.97,30.42C64.24,27.69 64.24,23.25 66.97,20.52L68.06,19.43C69.37,18.12 71.15,17.38 73.01,17.38L141.77,17.39C143.63,17.39 145.41,18.13 146.72,19.44L195.33,68.06C196.64,69.37 197.38,71.15 197.38,73.01L197.38,125.58L211.06,139.25C213.79,141.98 213.79,146.42 211.06,149.15C208.33,151.88 203.89,151.88 201.16,149.15L185.43,133.42C184.12,132.11 183.38,130.33 183.38,128.47L183.38,75.91L138.87,31.4L87.73,31.39L145.43,89.09C148.16,91.82 148.16,96.26 145.43,98.99L98.98,145.45C97.67,146.76 95.89,147.5 94.03,147.5C92.17,147.5 90.39,146.76 89.08,145.45L31.38,87.75L31.39,138.89L34.42,141.92C37.15,144.65 37.15,149.09 34.42,151.82C33.06,153.18 31.26,153.86 29.47,153.86Z" style="fill:rgb(254,197,0);fill-rule:nonzero;"/>
                    </g>
                    <g>
                        <path d="M45.18,169.57C43.34,169.57 41.54,168.82 40.23,167.52C38.93,166.22 38.18,164.42 38.18,162.57C38.18,162.11 38.23,161.65 38.32,161.2C38.41,160.76 38.54,160.32 38.72,159.89C38.89,159.47 39.11,159.06 39.36,158.68C39.62,158.3 39.91,157.94 40.23,157.62C41.54,156.32 43.34,155.57 45.18,155.57C47.02,155.57 48.83,156.32 50.13,157.62C50.46,157.94 50.75,158.3 51,158.68C51.25,159.06 51.47,159.47 51.65,159.89C51.82,160.32 51.95,160.76 52.04,161.2C52.13,161.65 52.18,162.11 52.18,162.57C52.18,164.41 51.43,166.22 50.13,167.52C49.81,167.84 49.45,168.13 49.07,168.39C48.69,168.64 48.28,168.86 47.86,169.03C47.44,169.21 47,169.34 46.55,169.43C46.1,169.52 45.64,169.57 45.18,169.57Z" style="fill:rgb(254,197,0);fill-rule:nonzero;"/>
                    </g>
                    <g>
                        <path d="M438.99,494.62L370.23,494.61C368.37,494.61 366.59,493.87 365.28,492.56L316.66,443.94C315.35,442.63 314.61,440.85 314.61,438.99L314.61,386.42L308.47,380.28C305.74,377.55 305.74,373.11 308.47,370.38C311.2,367.65 315.64,367.65 318.37,370.38L326.56,378.57C327.87,379.88 328.61,381.66 328.61,383.52L328.61,436.09L373.13,480.6L424.26,480.61L366.56,422.91C365.25,421.6 364.51,419.82 364.51,417.96C364.51,416.1 365.25,414.32 366.56,413.01L413.02,366.56C415.76,363.83 420.19,363.83 422.92,366.56L480.61,424.26L480.6,373.12L436.09,328.61L383.52,328.61C381.66,328.61 379.88,327.87 378.57,326.56L350.76,298.75L305.15,344.35C301.09,348.41 296.74,352.18 292.21,355.56C289.11,357.87 284.72,357.23 282.41,354.14C280.1,351.04 280.74,346.65 283.83,344.34C287.81,341.37 291.65,338.04 295.24,334.45L345.62,284.07C345.67,284.02 345.72,283.97 345.77,283.93L345.94,283.77C348.69,281.17 353.02,281.23 355.69,283.91L386.4,314.62L438.97,314.62C440.83,314.62 442.61,315.36 443.92,316.67L492.53,365.28C493.84,366.59 494.58,368.37 494.58,370.23L494.59,438.99C494.59,440.85 493.85,442.63 492.54,443.94L491.45,445.03C490.14,446.34 488.36,447.08 486.5,447.08C484.64,447.08 482.86,446.34 481.55,445.03L417.94,381.42L381.38,417.97L445,481.59C446.32,482.91 447.05,484.7 447.05,486.56C447.05,488.42 446.3,490.21 444.97,491.52L443.88,492.6C442.61,493.89 440.84,494.62 438.99,494.62Z" style="fill:rgb(254,197,0);fill-rule:nonzero;"/>
                    </g>
                    <g>
                        <path d="M220.73,379.33C216.86,379.33 213.73,376.2 213.73,372.33C213.73,368.46 216.86,365.33 220.73,365.33C243.32,365.33 265.73,357.87 283.84,344.34C287.83,341.36 291.67,338.04 295.26,334.45L345.64,284.07C345.69,284.02 345.74,283.97 345.79,283.93L345.89,283.84L352.06,277.67C357.56,272.17 360.59,264.86 360.59,257.08C360.59,249.3 357.56,241.99 352.06,236.49L333.75,218.18C331.02,215.45 331.02,211.01 333.75,208.28C336.48,205.55 340.92,205.55 343.65,208.28L361.96,226.59C370.1,234.73 374.59,245.56 374.59,257.08C374.59,268.6 370.1,279.43 361.96,287.57L355.72,293.81C355.67,293.86 355.62,293.9 355.57,293.95L355.47,294.04L305.16,344.35C301.1,348.41 296.75,352.18 292.22,355.56C271.72,370.89 246.33,379.33 220.73,379.33Z" style="fill:rgb(254,197,0);fill-rule:nonzero;"/>
                    </g>
                    <g>
                        <path d="M321.52,203.04C319.68,203.04 317.88,202.29 316.57,200.99C316.25,200.67 315.96,200.31 315.7,199.92C315.45,199.54 315.23,199.14 315.06,198.72C314.88,198.29 314.75,197.85 314.66,197.41C314.57,196.96 314.52,196.49 314.52,196.04C314.52,194.2 315.27,192.39 316.57,191.09C318.2,189.46 320.62,188.72 322.89,189.18C323.34,189.27 323.78,189.4 324.2,189.58C324.62,189.75 325.03,189.97 325.41,190.22C325.79,190.47 326.15,190.77 326.47,191.09C327.77,192.39 328.52,194.19 328.52,196.04C328.52,196.49 328.48,196.96 328.39,197.41C328.3,197.85 328.16,198.29 327.99,198.72C327.81,199.14 327.6,199.54 327.34,199.92C327.09,200.31 326.8,200.67 326.47,200.99C326.15,201.31 325.79,201.6 325.41,201.86C325.03,202.11 324.62,202.33 324.2,202.5C323.78,202.68 323.34,202.81 322.89,202.9C322.44,202.99 321.98,203.04 321.52,203.04Z" style="fill:rgb(254,197,0);fill-rule:nonzero;"/>
                    </g>
                    <g>
                        <path d="M196,404.05C194.21,404.05 192.42,403.37 191.05,402L112.91,323.86C110.18,321.13 110.18,316.69 112.91,313.96L139.91,286.96L139.91,235.29C139.91,229.85 142.12,224.53 145.97,220.68L191.74,174.91C195.64,171.01 200.83,168.86 206.35,168.86L226.36,168.86L234.81,160.4C235.33,159.89 236.04,159.21 236.81,158.54C253.83,143.52 279.73,144.33 295.79,160.4L310.99,175.6C313.72,178.33 313.72,182.77 310.99,185.5C308.26,188.23 303.82,188.23 301.09,185.5L285.89,170.3C275.03,159.44 257.53,158.9 246.04,169.07C246.01,169.1 245.98,169.12 245.95,169.15C245.59,169.45 245.18,169.84 244.66,170.35L234.22,180.8C232.91,182.12 231.12,182.86 229.26,182.86L206.35,182.86C204.57,182.86 202.89,183.55 201.64,184.81L155.87,230.58C154.62,231.82 153.91,233.54 153.91,235.29L153.91,289.86C153.91,291.72 153.17,293.5 151.86,294.81L127.76,318.91L200.95,392.1C203.68,394.83 203.68,399.27 200.95,402C199.58,403.37 197.79,404.05 196,404.05Z" style="fill:rgb(254,197,0);fill-rule:nonzero;"/>
                    </g>
                    <g>
                        <path d="M180,450.8C178.14,450.8 176.36,450.06 175.05,448.75L63.92,337.62C61.19,334.89 61.19,330.45 63.92,327.72L95.3,296.34C98.03,293.61 102.47,293.61 105.2,296.34L216.33,407.47C219.06,410.2 219.06,414.64 216.33,417.37L184.95,448.75C183.64,450.06 181.86,450.8 180,450.8ZM78.77,332.67L180,433.9L201.48,412.42L100.24,311.19L78.77,332.67Z" style="fill:rgb(254,197,0);fill-rule:nonzero;"/>
                    </g>
                </g>
            </g>
        </g>
    </g>
</svg>
